<svg xmlns="http://www.w3.org/2000/svg" xmlns:xlink="http://www.w3.org/1999/xlink" width="500" zoomAndPan="magnify" viewBox="0 0 375 374.999991" height="500" preserveAspectRatio="xMidYMid meet" version="1.2"><defs><clipPath id="2bfdadf48d"><path d="M 101.136719 280.609375 L 289.894531 280.609375 L 289.894531 355.015625 L 101.136719 355.015625 Z M 101.136719 280.609375 "/></clipPath><clipPath id="87a00cb9cc"><path d="M 196 19.980469 L 203 19.980469 L 203 31 L 196 31 Z M 196 19.980469 "/></clipPath><clipPath id="33387a1878"><path d="M 40.082031 137 L 58 137 L 58 150 L 40.082031 150 Z M 40.082031 137 "/></clipPath><clipPath id="2a84768f39"><path d="M 40.082031 164 L 56 164 L 56 171 L 40.082031 171 Z M 40.082031 164 "/></clipPath><clipPath id="fa292a5203"><path d="M 325 168.460938 L 334.832031 168.460938 L 334.832031 177 L 325 177 Z M 325 168.460938 "/></clipPath></defs><g id="cadc7173ac"><path style=" stroke:none;fill-rule:nonzero;fill:#765c48;fill-opacity:1;" d="M 375 187.5 C 375 190.570312 374.925781 193.636719 374.773438 196.699219 C 374.625 199.765625 374.398438 202.824219 374.097656 205.878906 C 373.796875 208.933594 373.421875 211.976562 372.96875 215.011719 C 372.519531 218.046875 371.996094 221.070312 371.398438 224.078125 C 370.796875 227.089844 370.125 230.082031 369.378906 233.058594 C 368.636719 236.035156 367.816406 238.992188 366.925781 241.929688 C 366.035156 244.863281 365.074219 247.777344 364.039062 250.667969 C 363.003906 253.554688 361.902344 256.417969 360.726562 259.253906 C 359.554688 262.089844 358.308594 264.890625 356.996094 267.667969 C 355.6875 270.441406 354.304688 273.179688 352.859375 275.886719 C 351.414062 278.59375 349.902344 281.261719 348.324219 283.894531 C 346.746094 286.527344 345.105469 289.117188 343.402344 291.667969 C 341.695312 294.222656 339.929688 296.730469 338.101562 299.195312 C 336.273438 301.660156 334.386719 304.078125 332.4375 306.449219 C 330.492188 308.820312 328.488281 311.144531 326.429688 313.417969 C 324.367188 315.691406 322.253906 317.914062 320.082031 320.082031 C 317.914062 322.253906 315.691406 324.367188 313.417969 326.429688 C 311.144531 328.488281 308.820312 330.492188 306.449219 332.4375 C 304.078125 334.386719 301.660156 336.273438 299.195312 338.101562 C 296.730469 339.929688 294.222656 341.695312 291.667969 343.402344 C 289.117188 345.105469 286.527344 346.746094 283.894531 348.324219 C 281.261719 349.902344 278.59375 351.414062 275.886719 352.859375 C 273.179688 354.308594 270.441406 355.6875 267.667969 356.996094 C 264.890625 358.308594 262.089844 359.554688 259.253906 360.726562 C 256.417969 361.902344 253.554688 363.003906 250.667969 364.039062 C 247.777344 365.074219 244.863281 366.035156 241.929688 366.925781 C 238.992188 367.816406 236.035156 368.636719 233.058594 369.378906 C 230.082031 370.125 227.089844 370.796875 224.078125 371.398438 C 221.070312 371.996094 218.046875 372.519531 215.011719 372.96875 C 211.976562 373.421875 208.933594 373.796875 205.878906 374.097656 C 202.824219 374.398438 199.765625 374.625 196.699219 374.773438 C 193.636719 374.925781 190.570312 375 187.5 375 C 184.429688 375 181.363281 374.925781 178.300781 374.773438 C 175.234375 374.625 172.175781 374.398438 169.121094 374.097656 C 166.066406 373.796875 163.023438 373.421875 159.988281 372.96875 C 156.953125 372.519531 153.929688 371.996094 150.921875 371.398438 C 147.910156 370.796875 144.917969 370.125 141.941406 369.378906 C 138.964844 368.636719 136.007812 367.816406 133.070312 366.925781 C 130.136719 366.035156 127.222656 365.074219 124.332031 364.039062 C 121.445312 363.003906 118.582031 361.902344 115.746094 360.726562 C 112.910156 359.554688 110.105469 358.308594 107.332031 356.996094 C 104.558594 355.6875 101.820312 354.308594 99.113281 352.859375 C 96.40625 351.414062 93.738281 349.902344 91.105469 348.324219 C 88.472656 346.746094 85.882812 345.105469 83.332031 343.402344 C 80.777344 341.695312 78.269531 339.929688 75.804688 338.101562 C 73.339844 336.273438 70.921875 334.386719 68.550781 332.4375 C 66.179688 330.492188 63.855469 328.488281 61.582031 326.429688 C 59.308594 324.367188 57.085938 322.253906 54.917969 320.082031 C 52.746094 317.914062 50.632812 315.691406 48.570312 313.417969 C 46.511719 311.144531 44.507812 308.820312 42.558594 306.449219 C 40.613281 304.078125 38.726562 301.660156 36.898438 299.195312 C 35.070312 296.730469 33.304688 294.222656 31.597656 291.667969 C 29.894531 289.117188 28.253906 286.527344 26.675781 283.894531 C 25.097656 281.261719 23.585938 278.59375 22.140625 275.886719 C 20.691406 273.179688 19.3125 270.441406 18.003906 267.667969 C 16.691406 264.890625 15.445312 262.089844 14.273438 259.253906 C 13.097656 256.417969 11.996094 253.554688 10.960938 250.667969 C 9.925781 247.777344 8.964844 244.863281 8.074219 241.929688 C 7.183594 238.992188 6.363281 236.035156 5.617188 233.058594 C 4.875 230.082031 4.203125 227.089844 3.601562 224.078125 C 3.003906 221.070312 2.480469 218.046875 2.03125 215.011719 C 1.578125 211.976562 1.203125 208.933594 0.902344 205.878906 C 0.601562 202.824219 0.375 199.765625 0.226562 196.699219 C 0.0742188 193.636719 0 190.570312 0 187.5 C 0 184.429688 0.0742188 181.363281 0.226562 178.300781 C 0.375 175.234375 0.601562 172.175781 0.902344 169.121094 C 1.203125 166.066406 1.578125 163.023438 2.03125 159.988281 C 2.480469 156.953125 3.003906 153.929688 3.601562 150.921875 C 4.203125 147.910156 4.875 144.917969 5.617188 141.941406 C 6.363281 138.964844 7.183594 136.007812 8.074219 133.070312 C 8.964844 130.136719 9.925781 127.222656 10.960938 124.332031 C 11.996094 121.445312 13.097656 118.582031 14.273438 115.746094 C 15.445312 112.910156 16.691406 110.105469 18.003906 107.332031 C 19.3125 104.558594 20.691406 101.820312 22.140625 99.113281 C 23.585938 96.40625 25.097656 93.738281 26.675781 91.105469 C 28.253906 88.472656 29.894531 85.882812 31.597656 83.332031 C 33.304688 80.777344 35.070312 78.269531 36.898438 75.804688 C 38.726562 73.339844 40.613281 70.921875 42.558594 68.550781 C 44.507812 66.179688 46.511719 63.855469 48.570312 61.582031 C 50.632812 59.308594 52.746094 57.085938 54.917969 54.917969 C 57.085938 52.746094 59.308594 50.632812 61.582031 48.570312 C 63.855469 46.511719 66.179688 44.507812 68.550781 42.558594 C 70.921875 40.613281 73.339844 38.726562 75.804688 36.898438 C 78.269531 35.070312 80.777344 33.304688 83.332031 31.597656 C 85.882812 29.894531 88.472656 28.253906 91.105469 26.675781 C 93.738281 25.097656 96.40625 23.585938 99.113281 22.140625 C 101.820312 20.691406 104.558594 19.3125 107.332031 18.003906 C 110.105469 16.691406 112.910156 15.445312 115.746094 14.273438 C 118.582031 13.097656 121.445312 11.996094 124.332031 10.960938 C 127.222656 9.925781 130.136719 8.964844 133.070312 8.074219 C 136.007812 7.183594 138.964844 6.363281 141.941406 5.617188 C 144.917969 4.875 147.910156 4.203125 150.921875 3.601562 C 153.929688 3.003906 156.953125 2.480469 159.988281 2.03125 C 163.023438 1.578125 166.066406 1.203125 169.121094 0.902344 C 172.175781 0.601562 175.234375 0.375 178.300781 0.226562 C 181.363281 0.0742188 184.429688 0 187.5 0 C 190.570312 0 193.636719 0.0742188 196.699219 0.226562 C 199.765625 0.375 202.824219 0.601562 205.878906 0.902344 C 208.933594 1.203125 211.976562 1.578125 215.011719 2.03125 C 218.046875 2.480469 221.070312 3.003906 224.078125 3.601562 C 227.089844 4.203125 230.082031 4.875 233.058594 5.617188 C 236.035156 6.363281 238.992188 7.183594 241.929688 8.074219 C 244.863281 8.964844 247.777344 9.925781 250.667969 10.960938 C 253.554688 11.996094 256.417969 13.097656 259.253906 14.273438 C 262.089844 15.445312 264.890625 16.691406 267.667969 18.003906 C 270.441406 19.3125 273.179688 20.691406 275.886719 22.140625 C 278.59375 23.585938 281.261719 25.097656 283.894531 26.675781 C 286.527344 28.253906 289.117188 29.894531 291.667969 31.597656 C 294.222656 33.304688 296.730469 35.070312 299.195312 36.898438 C 301.660156 38.726562 304.078125 40.613281 306.449219 42.558594 C 308.820312 44.507812 311.144531 46.511719 313.417969 48.570312 C 315.691406 50.632812 317.914062 52.746094 320.082031 54.917969 C 322.253906 57.085938 324.367188 59.308594 326.429688 61.582031 C 328.488281 63.855469 330.492188 66.179688 332.4375 68.550781 C 334.386719 70.921875 336.273438 73.339844 338.101562 75.804688 C 339.929688 78.269531 341.695312 80.777344 343.402344 83.332031 C 345.105469 85.882812 346.746094 88.472656 348.324219 91.105469 C 349.902344 93.738281 351.414062 96.40625 352.859375 99.113281 C 354.304688 101.820312 355.6875 104.558594 356.996094 107.332031 C 358.308594 110.105469 359.554688 112.910156 360.726562 115.746094 C 361.902344 118.582031 363.003906 121.445312 364.039062 124.332031 C 365.074219 127.222656 366.035156 130.136719 366.925781 133.070312 C 367.816406 136.007812 368.636719 138.964844 369.378906 141.941406 C 370.125 144.917969 370.796875 147.910156 371.398438 150.921875 C 371.996094 153.929688 372.519531 156.953125 372.96875 159.988281 C 373.421875 163.023438 373.796875 166.066406 374.097656 169.121094 C 374.398438 172.175781 374.625 175.234375 374.773438 178.300781 C 374.925781 181.363281 375 184.429688 375 187.5 Z M 375 187.5 "/><path style=" stroke:none;fill-rule:nonzero;fill:#ffffff;fill-opacity:1;" d="M 286.253906 305.542969 C 279.699219 306.222656 272.863281 306.46875 272.042969 304.195312 C 269.769531 297.867188 261.78125 296 262.621094 295.207031 C 262.949219 294.890625 265.789062 295.046875 270.5 295.90625 C 272.820312 296.324219 279.734375 298.570312 282.03125 299.054688 C 283.210938 299.304688 284.191406 299.710938 285.03125 300.140625 C 288.40625 301.863281 294.21875 302.398438 298.675781 303.464844 C 301.089844 304.042969 303.097656 305.402344 304.125 305.738281 C 302.9375 304.292969 301.117188 303.785156 300.140625 303.414062 C 298.40625 302.753906 296.894531 302.101562 295.3125 301.824219 C 292.675781 301.367188 291.023438 301.214844 289.097656 300.265625 C 284.457031 297.980469 281.851562 296.902344 277.351562 296.207031 C 277.542969 295.714844 285.445312 295.0625 288.820312 295.203125 C 292.351562 295.339844 298.117188 296.226562 302.390625 295.992188 C 303.933594 295.90625 305.246094 295.636719 306.703125 295.480469 C 308.160156 295.328125 309.90625 295.746094 311.507812 296.105469 C 310.113281 295.265625 307.265625 294.964844 305.078125 295.027344 C 302.894531 295.089844 300.890625 295.398438 298.578125 295.269531 C 295.1875 295.078125 291.863281 293.984375 288.453125 293.75 C 283.984375 293.445312 280.542969 294.703125 276.066406 294.421875 C 273.570312 294.261719 271.242188 293.519531 268.730469 293.179688 C 262.472656 292.320312 252.089844 293.640625 243.058594 293.128906 C 238.394531 292.859375 233.074219 292.949219 229.097656 291.792969 C 225.882812 290.863281 219.269531 286.726562 218.917969 286.167969 C 217.925781 284.582031 222.429688 283.410156 225.882812 283.757812 C 229.335938 284.105469 231.949219 284.5625 235.40625 284.894531 C 239.59375 285.300781 244.074219 285.15625 248.269531 284.964844 C 251.714844 284.800781 258.902344 284.546875 262.371094 284.832031 C 268.40625 285.320312 270.769531 286.308594 276.800781 286.828125 C 273.398438 286.082031 269.9375 285.398438 266.585938 284.605469 C 262.546875 283.644531 256.859375 283.789062 254.527344 283.792969 C 231.0625 283.914062 232.125 279.917969 218.125 279.046875 C 211.632812 278.65625 200.277344 278.523438 193.761719 278.726562 C 189.492188 278.855469 185.214844 279.804688 180.933594 279.84375 C 178.726562 279.863281 176.519531 279.875 174.3125 279.890625 C 173.246094 279.894531 171.929688 278.378906 171.5 278.777344 C 169.484375 278.570312 164.277344 279.582031 164.015625 279.605469 C 161.074219 279.832031 157.75 279.71875 154.945312 280.167969 C 152.675781 280.523438 148.578125 281.515625 147.277344 282.53125 C 144.117188 283.882812 141.035156 285.40625 137.058594 286.09375 C 135.390625 286.382812 133.613281 286.515625 131.996094 286.875 C 128.433594 287.667969 126.179688 289.425781 122.800781 290.394531 C 119.484375 291.347656 115.488281 291.441406 111.761719 291.34375 C 108.039062 291.246094 104.3125 290.980469 100.566406 291.304688 C 96.820312 291.625 92.917969 292.695312 91.503906 294.363281 C 94.890625 292.304688 101.203125 292.082031 106.410156 292.410156 C 111.609375 292.730469 117.1875 293.351562 122.105469 292.210938 C 125.75 291.363281 128.40625 289.648438 132.207031 289 C 133.546875 288.773438 135.234375 288.738281 136.082031 289.234375 C 136.847656 289.683594 136.425781 290.347656 136.15625 290.933594 C 134.816406 293.800781 132.183594 294.191406 129.316406 295.511719 C 127.25 296.464844 124.996094 296.882812 122.4375 297.507812 C 118.152344 298.546875 113.324219 299.246094 108.660156 299.667969 C 103.996094 300.082031 99.09375 300.792969 95.773438 302.457031 C 93.863281 303.414062 92.636719 304.613281 90.851562 305.613281 C 86.757812 307.917969 80.84375 309.519531 79.050781 312.300781 C 78.035156 313.871094 77.917969 315.238281 77.835938 316.835938 C 77.753906 318.386719 76.582031 319.96875 74.535156 321.273438 C 76.875 319.71875 78.996094 318.628906 79.933594 316.828125 C 80.96875 314.832031 80.34375 312.855469 83.203125 311.207031 C 85.660156 309.789062 90.023438 307.742188 92.753906 306.421875 C 94.476562 305.585938 95.652344 305.003906 97.238281 304.109375 C 100.804688 302.097656 105.171875 301.796875 110.460938 301.101562 C 115.742188 300.40625 122.238281 299.230469 127.324219 298.21875 C 132.40625 297.207031 137.5625 294.800781 139.125 292.332031 C 139.839844 291.199219 139.515625 290.59375 140.316406 289.472656 C 141.75 287.472656 145.570312 286 149.550781 285 C 153.535156 284.007812 155.402344 282.976562 162.25 282.902344 C 163.71875 282.882812 171.3125 282.175781 174.476562 284.039062 C 176.183594 285.042969 174.347656 286.269531 172.921875 287.40625 C 169.65625 290.007812 163.613281 291.496094 158.253906 293.195312 C 152.890625 294.886719 147.523438 297.277344 147.191406 300.257812 C 147 301.953125 147.261719 303.535156 148.953125 305.222656 C 150.46875 306.730469 152.300781 308 146.566406 309 C 143.535156 309.53125 138.304688 309.296875 135.363281 309.949219 C 132.238281 310.640625 130.800781 312.128906 128.265625 313.246094 C 124.789062 314.773438 120.058594 314.792969 115.421875 315.09375 C 108.332031 315.566406 102.003906 318.1875 99.621094 321.320312 C 101.039062 320.054688 104.132812 319.289062 106.679688 318.402344 C 112.433594 316.402344 119.929688 317.007812 124.449219 316.308594 C 122.773438 318.628906 125.179688 322.449219 126.351562 324.78125 C 127.640625 327.347656 125.371094 327.378906 124.898438 330.589844 C 124.5625 332.839844 126.546875 335.445312 131.023438 336.191406 C 128.292969 335.171875 127.652344 333.320312 128.019531 331.65625 C 128.386719 329.996094 129.554688 328.363281 129.65625 326.699219 C 129.875 323.261719 124.9375 319.253906 129.125 316.351562 C 132.207031 314.214844 133.035156 312.542969 137.945312 311.675781 C 145.171875 310.402344 152.816406 311.21875 155.199219 308.339844 C 156.242188 307.078125 154.175781 305.339844 153.621094 304.039062 C 150.40625 296.484375 165.164062 294.703125 166.316406 295.226562 C 167.945312 295.957031 164.3125 298.335938 166.863281 300.515625 C 168.582031 301.988281 172.804688 302.636719 173.753906 304.265625 C 174.636719 305.78125 171.789062 307.214844 170.945312 308.761719 C 169.199219 311.960938 176.265625 315.183594 173.859375 318.292969 C 171.554688 321.273438 163.015625 321.5625 157.230469 323.203125 C 148.617188 325.648438 146.984375 332.125 154.171875 335.253906 C 149.328125 331.007812 151.230469 326.015625 159.339844 324.71875 C 162.90625 324.148438 167.160156 323.628906 170.398438 322.714844 C 173.570312 321.824219 175.757812 319.074219 179.410156 318.992188 C 182.136719 318.929688 184.136719 322.160156 185.453125 323.277344 C 186.765625 324.394531 187.425781 325.667969 188.800781 326.769531 C 191.046875 328.566406 195.285156 330.117188 194.710938 332.207031 C 194.421875 333.242188 194.046875 333.996094 194.007812 335.242188 C 196.929688 333.316406 197.1875 330.582031 194.628906 328.582031 C 193.070312 327.359375 190.5625 326.390625 189.695312 325.015625 C 189.121094 324.117188 186.953125 320.417969 186.082031 319.574219 C 182.917969 316.511719 179.273438 317.15625 176.953125 313.9375 C 172.175781 307.308594 182.359375 307.582031 180.15625 304.574219 C 178.207031 301.90625 170.03125 300.519531 170.8125 297.707031 C 171.351562 295.765625 175.992188 294.6875 177.929688 292.949219 C 178.773438 292.191406 179.074219 291.324219 179.945312 290.570312 C 181.4375 289.28125 184.660156 288.484375 187.738281 288.644531 C 190.8125 288.804688 191.578125 290.433594 192.382812 291.835938 C 194.144531 294.925781 189.113281 297.546875 190.957031 300.625 C 191.53125 301.582031 192.945312 302.457031 192.808594 303.453125 C 192.679688 304.390625 191.210938 305.148438 190.253906 305.980469 C 188.058594 307.882812 188.707031 310.414062 191.789062 311.988281 C 194.925781 313.597656 199.800781 314.09375 203.914062 315.109375 C 208.023438 316.125 211.792969 318.332031 209.945312 320.339844 C 212.46875 318.640625 212.089844 316.121094 209.082031 314.613281 C 206.574219 313.355469 202.824219 312.878906 199.601562 312.066406 C 196.375 311.25 193.320312 309.6875 194.175781 308.003906 C 194.925781 306.53125 198.398438 305.570312 198.765625 304.074219 C 198.917969 303.429688 198.945312 302.738281 198.402344 302.148438 C 193.792969 297.121094 199.671875 292.75 212.722656 298.007812 C 217.070312 299.757812 213.464844 302.929688 216.875 304.175781 C 220.785156 305.597656 231.023438 303.777344 233.269531 305.859375 C 235.390625 307.808594 227.867188 311.4375 228.066406 313.621094 C 228.265625 315.8125 232.65625 317.464844 233.648438 319.609375 C 235.023438 322.578125 229.605469 325.261719 228.527344 328.265625 C 227.59375 330.855469 230.292969 333.648438 235.050781 335.019531 C 230.804688 333.519531 231.035156 330.464844 232.777344 328.109375 C 234.519531 325.746094 237.382812 323.453125 237.019531 320.964844 C 236.6875 318.699219 233.710938 316.6875 232.792969 314.449219 C 231.875 312.214844 234.738281 309.890625 239.535156 309.585938 C 251.128906 308.855469 246.765625 315.128906 251.730469 317.578125 C 256.386719 319.875 268.34375 321.359375 268.332031 325.621094 C 268.328125 327.554688 267.90625 330.054688 264.300781 331.035156 C 271.425781 329.367188 273.65625 324.519531 268.597656 321.597656 C 264.410156 319.175781 251.289062 316.371094 253.429688 314.039062 C 252.734375 314.796875 265.253906 315.445312 275.449219 314.273438 C 281.445312 313.582031 287.722656 315.371094 289.40625 318.117188 C 287.996094 315.8125 284.929688 314.003906 280.546875 313.390625 C 276.160156 312.777344 272.886719 313.265625 268.363281 313.347656 C 263.839844 313.421875 257.640625 313.734375 254.445312 312.203125 C 252.097656 311.074219 252.21875 308.792969 249.40625 307.917969 C 246.824219 307.113281 243.277344 307.183594 240.90625 306.246094 C 239.054688 305.515625 238.355469 304.332031 236.777344 303.46875 C 232.066406 300.878906 220.546875 304.546875 220.246094 301.195312 C 219.859375 296.921875 214.246094 294.710938 208.628906 293.941406 C 204.9375 293.433594 201.199219 292.601562 199.214844 291.054688 C 197.230469 289.511719 197.621094 287.214844 200.800781 286.207031 C 203.996094 285.199219 208.507812 285.859375 211.402344 287.070312 C 214.296875 288.28125 216.152344 289.941406 218.613281 291.347656 C 224.5 294.710938 235.453125 295.929688 244.546875 295.515625 C 247.214844 295.367188 263.457031 294.902344 267.3125 303.035156 C 268.28125 305.074219 270.28125 307.328125 274.414062 308.226562 C 279.363281 309.292969 285.839844 306.28125 290.6875 307.480469 C 294.695312 308.464844 295.398438 312.164062 297.777344 313.914062 C 300.449219 315.871094 305.652344 316.460938 310.171875 317.503906 C 303.289062 315.914062 299.765625 313.335938 297.558594 310.984375 C 295.046875 308.324219 293.632812 304.777344 286.253906 305.542969 "/><g clip-rule="nonzero" clip-path="url(#2bfdadf48d)"><path style=" stroke:none;fill-rule:nonzero;fill:#ffffff;fill-opacity:1;" d="M 121.777344 315.460938 C 126.988281 316.53125 132.414062 316.96875 133.0625 313.9375 C 134.855469 305.511719 141.199219 303.191406 140.53125 302.113281 C 140.269531 301.6875 138.019531 301.84375 134.277344 302.882812 C 132.433594 303.398438 126.941406 306.246094 125.121094 306.839844 C 124.183594 307.148438 123.40625 307.667969 122.742188 308.222656 C 120.058594 310.457031 115.441406 311.03125 111.902344 312.351562 C 109.984375 313.066406 108.390625 314.851562 107.574219 315.277344 C 108.515625 313.347656 109.960938 312.71875 110.738281 312.238281 C 112.113281 311.386719 113.3125 310.550781 114.570312 310.222656 C 116.667969 309.675781 117.976562 309.519531 119.503906 308.289062 C 123.191406 305.328125 125.257812 303.953125 128.835938 303.132812 C 128.679688 302.472656 122.398438 301.386719 119.714844 301.46875 C 116.90625 301.550781 112.324219 302.5625 108.921875 302.09375 C 107.691406 301.921875 106.644531 301.507812 105.484375 301.242188 C 104.324219 300.976562 102.9375 301.480469 101.660156 301.910156 C 102.769531 300.816406 105.035156 300.515625 106.777344 300.6875 C 108.515625 300.855469 110.113281 301.34375 111.953125 301.246094 C 114.648438 301.105469 117.292969 299.730469 120 299.523438 C 123.554688 299.246094 126.292969 301.035156 129.847656 300.769531 C 131.832031 300.617188 133.683594 299.679688 135.675781 299.28125 C 140.648438 298.289062 148.890625 300.242188 156.054688 299.664062 C 159.757812 299.363281 163.976562 299.535156 167.132812 298.046875 C 169.679688 296.84375 174.929688 291.449219 175.207031 290.722656 C 175.996094 288.648438 172.421875 287.078125 169.683594 287.5 C 166.945312 287.917969 164.875 288.492188 162.128906 288.886719 C 158.804688 289.367188 155.25 289.109375 151.917969 288.773438 C 149.183594 288.496094 143.476562 288.007812 140.722656 288.296875 C 135.921875 288.796875 134.046875 290.050781 129.253906 290.570312 C 131.957031 289.671875 134.707031 288.855469 137.371094 287.886719 C 140.578125 286.710938 145.09375 287.042969 146.949219 287.101562 C 165.582031 287.703125 164.730469 282.363281 175.84375 281.378906 C 180.992188 280.929688 190 280.796875 195.164062 281.050781 C 198.546875 281.210938 201.9375 282.433594 205.328125 282.457031 C 207.078125 282.46875 208.832031 282.46875 210.578125 282.464844 C 211.425781 282.460938 212.472656 280.480469 212.8125 280.988281 C 214.410156 280.703125 217.707031 282.074219 218.125 281.980469 C 218.324219 281.933594 218.535156 281.957031 218.738281 281.980469 C 221.074219 282.238281 223.707031 282.042969 225.929688 282.574219 C 227.726562 283.003906 230.972656 284.214844 232 285.503906 C 234.5 287.195312 236.9375 289.101562 240.089844 289.898438 C 241.414062 290.234375 242.820312 290.363281 244.101562 290.789062 C 246.917969 291.722656 248.699219 293.933594 251.378906 295.09375 C 254 296.230469 257.171875 296.234375 260.125 295.984375 C 263.078125 295.730469 266.039062 295.257812 269.007812 295.539062 C 271.980469 295.820312 275.070312 297.050781 276.183594 299.15625 C 273.511719 296.625 268.496094 296.578125 264.367188 297.179688 C 260.238281 297.777344 255.8125 298.761719 251.921875 297.425781 C 249.035156 296.433594 246.933594 294.289062 243.925781 293.550781 C 242.863281 293.285156 241.527344 293.277344 240.855469 293.945312 C 240.246094 294.542969 240.578125 295.394531 240.789062 296.148438 C 241.839844 299.832031 243.925781 300.269531 246.191406 301.902344 C 247.828125 303.078125 249.609375 303.558594 251.636719 304.292969 C 255.027344 305.511719 258.851562 306.265625 262.546875 306.65625 C 266.246094 307.039062 270.132812 307.78125 272.757812 309.8125 C 274.269531 310.980469 275.234375 312.480469 276.644531 313.714844 C 279.878906 316.542969 284.566406 318.378906 285.976562 321.90625 C 286.777344 323.902344 286.859375 325.671875 286.917969 327.742188 C 286.976562 329.753906 287.894531 331.753906 289.511719 333.363281 C 287.664062 331.445312 285.988281 330.117188 285.25 327.816406 C 284.441406 325.265625 284.949219 322.683594 282.6875 320.660156 C 280.746094 318.921875 277.296875 316.441406 275.136719 314.832031 C 273.773438 313.8125 272.84375 313.101562 271.589844 312.003906 C 268.769531 309.53125 265.308594 309.296875 261.117188 308.574219 C 256.929688 307.847656 251.789062 306.519531 247.761719 305.351562 C 243.734375 304.1875 239.65625 301.195312 238.429688 298.027344 C 237.863281 296.574219 238.125 295.785156 237.496094 294.347656 C 236.367188 291.792969 233.34375 289.96875 230.1875 288.75 C 227.039062 287.535156 225.558594 286.234375 220.132812 286.238281 C 218.96875 286.238281 212.949219 285.414062 210.4375 287.863281 C 209.082031 289.1875 210.535156 290.761719 211.664062 292.226562 C 214.246094 295.570312 219.027344 297.425781 223.269531 299.53125 C 227.515625 301.636719 231.757812 304.621094 232.011719 308.476562 C 232.15625 310.675781 231.949219 312.730469 230.601562 314.953125 C 229.398438 316.945312 227.941406 318.628906 232.476562 319.800781 C 234.878906 320.421875 239.019531 319.992188 241.347656 320.757812 C 243.820312 321.570312 244.957031 323.460938 246.957031 324.832031 C 249.707031 326.71875 253.453125 326.601562 257.125 326.851562 C 262.738281 327.230469 267.746094 330.414062 269.621094 334.386719 C 268.503906 332.792969 266.054688 331.910156 264.039062 330.847656 C 259.488281 328.449219 253.546875 329.46875 249.96875 328.695312 C 251.289062 331.648438 249.367188 336.667969 248.429688 339.714844 C 247.398438 343.078125 249.199219 343.054688 249.558594 347.195312 C 249.816406 350.097656 248.234375 353.53125 244.6875 354.625 C 246.859375 353.226562 247.367188 350.8125 247.082031 348.671875 C 246.800781 346.53125 245.878906 344.449219 245.804688 342.296875 C 245.648438 337.851562 249.574219 332.519531 246.265625 328.878906 C 243.835938 326.199219 243.183594 324.058594 239.296875 323.0625 C 233.578125 321.59375 227.519531 322.8125 225.644531 319.128906 C 224.820312 317.511719 226.464844 315.214844 226.90625 313.515625 C 229.476562 303.667969 217.789062 301.617188 216.875 302.300781 C 215.582031 303.269531 218.453125 306.304688 216.429688 309.179688 C 215.0625 311.117188 211.71875 312.015625 210.960938 314.15625 C 210.257812 316.136719 212.511719 317.964844 213.171875 319.953125 C 214.546875 324.085938 208.949219 328.390625 210.84375 332.398438 C 212.660156 336.234375 219.414062 336.449219 223.992188 338.453125 C 230.804688 341.4375 232.074219 349.78125 226.375 354.015625 C 230.21875 348.390625 228.734375 341.972656 222.316406 340.460938 C 219.496094 339.800781 216.132812 339.207031 213.570312 338.082031 C 211.0625 336.984375 209.335938 333.449219 206.445312 333.394531 C 204.292969 333.351562 202.699219 337.59375 201.65625 339.066406 C 200.613281 340.542969 200.089844 342.214844 199 343.667969 C 197.21875 346.046875 193.863281 348.132812 194.316406 350.847656 C 194.539062 352.195312 194.835938 353.171875 194.863281 354.800781 C 192.558594 352.335938 192.355469 348.765625 194.382812 346.117188 C 195.621094 344.5 197.605469 343.199219 198.296875 341.398438 C 198.75 340.214844 200.476562 335.363281 201.167969 334.25 C 203.675781 330.222656 206.558594 331.003906 208.40625 326.777344 C 212.203125 318.089844 204.136719 318.589844 205.894531 314.636719 C 207.4375 311.148438 213.921875 309.230469 213.308594 305.585938 C 212.882812 303.074219 209.214844 301.730469 207.683594 299.488281 C 207.015625 298.511719 206.777344 297.382812 206.089844 296.414062 C 204.910156 294.75 202.355469 293.730469 199.917969 293.960938 C 197.480469 294.1875 196.871094 296.3125 196.234375 298.148438 C 194.832031 302.191406 198.808594 305.578125 197.34375 309.605469 C 196.886719 310.855469 195.765625 312.011719 195.871094 313.304688 C 195.972656 314.527344 197.132812 315.507812 197.886719 316.578125 C 199.625 319.039062 199.105469 322.34375 196.664062 324.433594 C 194.175781 326.5625 190.316406 327.261719 187.058594 328.621094 C 183.804688 329.984375 180.816406 332.898438 182.277344 335.519531 C 180.28125 333.3125 180.582031 330.007812 182.96875 328.011719 C 184.957031 326.351562 187.925781 325.703125 190.480469 324.609375 C 193.035156 323.519531 195.457031 321.449219 194.777344 319.253906 C 194.1875 317.34375 191.441406 316.117188 191.15625 314.160156 C 191.03125 313.324219 191.015625 312.421875 191.441406 311.644531 C 195.105469 305.054688 190.457031 299.386719 180.105469 306.273438 C 176.65625 308.570312 179.511719 312.722656 176.808594 314.363281 C 173.707031 316.238281 165.597656 313.824219 163.8125 316.550781 C 162.132812 319.117188 168.09375 323.914062 167.933594 326.785156 C 167.773438 329.667969 164.292969 331.855469 163.511719 334.683594 C 162.421875 338.605469 166.707031 342.121094 167.558594 346.066406 C 168.296875 349.46875 166.160156 353.167969 162.394531 355.015625 C 165.753906 353.003906 165.574219 348.984375 164.195312 345.886719 C 162.816406 342.78125 160.550781 339.765625 160.839844 336.476562 C 161.101562 333.488281 163.460938 330.828125 164.1875 327.878906 C 164.917969 324.929688 162.648438 321.871094 158.847656 321.445312 C 149.660156 320.421875 153.121094 328.746094 149.1875 331.984375 C 145.496094 335.011719 136.019531 336.929688 136.035156 342.625 C 136.039062 345.207031 136.378906 348.550781 139.234375 349.863281 C 133.589844 347.632812 131.8125 341.117188 135.820312 337.242188 C 139.136719 334.042969 149.535156 330.382812 147.839844 327.277344 C 148.386719 328.285156 138.464844 329.082031 130.375 327.382812 C 125.617188 326.382812 120.636719 328.671875 119.308594 332.363281 C 120.425781 329.265625 122.847656 326.882812 126.328125 326.125 C 129.808594 325.367188 132.40625 326.070312 135.996094 326.222656 C 139.582031 326.378906 144.5 326.84375 147.03125 324.828125 C 148.890625 323.347656 148.792969 320.320312 151.023438 319.1875 C 153.070312 318.140625 155.882812 318.253906 157.761719 317.03125 C 159.230469 316.074219 159.785156 314.511719 161.035156 313.382812 C 164.769531 310.007812 173.898438 314.859375 174.140625 310.453125 C 174.449219 304.832031 178.902344 301.949219 183.355469 300.945312 C 186.28125 300.28125 189.246094 299.183594 190.820312 297.15625 C 192.394531 295.136719 192.089844 292.140625 189.570312 290.824219 C 187.039062 289.507812 183.460938 290.359375 181.164062 291.941406 C 178.867188 293.519531 177.398438 295.6875 175.441406 297.527344 C 170.773438 301.914062 162.089844 303.464844 154.875 302.804688 C 152.761719 302.597656 139.871094 301.695312 136.816406 312.46875 C 136.050781 315.175781 134.460938 318.15625 131.183594 319.292969 C 127.261719 320.652344 122.113281 316.476562 118.265625 317.980469 C 115.082031 319.21875 114.53125 324.207031 112.648438 326.527344 C 110.535156 329.128906 106.398438 329.816406 102.8125 331.148438 C 108.277344 329.125 111.066406 325.691406 112.8125 322.566406 C 114.800781 319.011719 115.914062 314.269531 121.777344 315.460938 "/></g><path style=" stroke:none;fill-rule:nonzero;fill:#ffffff;fill-opacity:1;" d="M 268.519531 156.625 L 269.457031 156.269531 L 269.886719 156.40625 C 274.207031 157.773438 278 158.75 281.476562 159.398438 C 284.882812 160.011719 288.359375 160.445312 291.871094 160.703125 C 290.851562 160.554688 289.835938 160.386719 288.835938 160.210938 C 284.929688 159.511719 280.363281 158.292969 275.265625 156.59375 L 271.726562 155.410156 L 276.152344 153.773438 C 289.25 148.972656 297.726562 142.929688 303.175781 137.445312 C 298.574219 140.523438 293.207031 143.160156 287.960938 145.507812 L 285.613281 146.558594 L 286.140625 144.046875 C 286.933594 140.253906 287.996094 137.074219 289.308594 134.59375 C 288.613281 135.59375 287.960938 136.675781 287.371094 137.832031 C 286.21875 140.085938 285.265625 142.964844 284.542969 146.386719 L 284.398438 147.058594 L 283.765625 147.324219 C 276.277344 150.460938 268.179688 153.503906 260.347656 156.445312 C 252.496094 159.394531 245.082031 162.179688 238.75 164.875 L 235.117188 166.421875 L 237.105469 163.007812 C 238.519531 160.578125 239.695312 158.320312 240.703125 156.09375 C 242.128906 152.941406 243.601562 148.941406 245.160156 144.707031 L 245.566406 143.605469 L 246.402344 143.535156 C 250.632812 143.195312 254.109375 142.667969 257.015625 141.933594 C 257.992188 141.691406 258.9375 141.421875 259.859375 141.136719 C 256.59375 141.839844 252.582031 142.328125 247.902344 142.589844 L 245.894531 142.703125 L 246.597656 140.820312 C 249.472656 133.140625 253.832031 121.472656 260.960938 111.835938 C 256.300781 116.21875 251.761719 121.90625 248.679688 129.089844 C 248.328125 129.90625 247.988281 130.707031 247.65625 131.5 L 246.160156 135.09375 L 245.175781 131.328125 C 244.039062 126.964844 243.386719 123.042969 243.242188 119.683594 C 243.152344 117.558594 243.152344 114.707031 243.460938 111.390625 C 242.535156 115.78125 242.046875 120.757812 242.4375 126.148438 C 242.691406 129.628906 243.457031 133.644531 244.726562 138.085938 L 244.847656 138.511719 L 244.558594 139.253906 C 240.578125 149.480469 237.738281 158.519531 229.082031 168.980469 L 227.652344 170.074219 C 222.707031 172.707031 217.789062 175.8125 213.039062 179.300781 L 211.417969 180.496094 L 210.984375 178.527344 C 209.523438 171.910156 208.882812 166.054688 209.082031 161.128906 C 209.203125 158.148438 209.589844 153.917969 210.644531 148.992188 C 208.679688 154.738281 207.203125 161.46875 207.128906 168.832031 C 207.085938 172.664062 207.542969 177.066406 208.480469 181.917969 L 208.628906 182.6875 L 208.023438 183.1875 C 202.449219 187.710938 198.371094 191.769531 195.929688 194.371094 L 194.269531 196.144531 L 193.699219 193.78125 C 192.828125 190.195312 192.03125 185.894531 191.394531 182.4375 C 190.835938 179.429688 190.355469 176.828125 190.039062 175.820312 C 188.546875 171.085938 191.3125 142.191406 197.289062 123.769531 L 197.386719 123.46875 L 198.242188 122.617188 C 201.355469 119.519531 203.8125 117.070312 206.90625 114.164062 L 208.527344 112.609375 C 215.097656 106.304688 224.53125 97.253906 232.863281 85.757812 C 229.285156 90.308594 225.125 94.851562 220.308594 99.140625 C 213.644531 105.113281 207.460938 110.789062 201.925781 116.007812 L 198.164062 119.152344 C 198.863281 117.144531 201.175781 110.632812 201.867188 108.699219 C 204.621094 100.90625 209.390625 87.410156 211.152344 71.121094 C 210.375 76.238281 209.175781 81.511719 207.421875 86.796875 L 206.753906 88.800781 L 204.171875 86.25 C 200.835938 82.964844 197.953125 80.125 195.914062 76.632812 C 195.054688 75.164062 194.207031 73.664062 193.40625 72.097656 C 194.449219 74.527344 195.785156 77.078125 197.480469 79.734375 C 199.023438 82.164062 201.835938 85.644531 205.621094 89.800781 L 206.15625 90.386719 L 204.125 95.9375 C 193.558594 124.820312 185.925781 145.691406 183.53125 161.6875 L 183.003906 165.195312 L 181.121094 162.1875 C 176.402344 154.648438 171.96875 146.351562 167.945312 137.523438 L 167.640625 136.859375 L 168.042969 136.253906 C 170.742188 132.175781 172.828125 128.429688 174.238281 125.105469 C 177.371094 117.757812 178.488281 110.878906 178.625 105.046875 C 177.761719 110.667969 176.222656 115.382812 174.996094 118.527344 C 173.480469 122.414062 171.011719 126.917969 167.667969 131.910156 L 166.320312 133.917969 L 165.375 131.6875 C 161.738281 123.140625 158.421875 114.035156 155.515625 104.613281 L 155.328125 104 L 155.699219 103.472656 C 158.5 99.480469 160.488281 96.046875 161.78125 92.972656 C 162.941406 90.214844 163.714844 87.554688 164.199219 85.050781 C 163.792969 86.398438 163.378906 87.578125 163 88.550781 C 161.714844 91.878906 159.503906 95.804688 156.425781 100.222656 L 154.855469 102.472656 L 154.089844 99.839844 C 150.511719 87.542969 148.117188 76.445312 146.578125 67.703125 C 146.894531 72.855469 147.597656 79.0625 149.011719 86.433594 L 149.613281 89.570312 L 146.980469 87.761719 C 141.199219 83.789062 136.835938 80.191406 133.652344 76.765625 C 133.476562 76.574219 133.296875 76.378906 133.121094 76.183594 C 134.589844 78.101562 136.230469 80.003906 138.066406 81.863281 C 141 84.867188 144.800781 87.980469 149.675781 91.382812 L 150.09375 91.675781 L 150.203125 92.171875 C 152.292969 101.523438 155.292969 111.726562 159.117188 122.488281 L 160.109375 125.277344 L 157.378906 124.136719 C 146.621094 119.65625 120.292969 107.917969 108.195312 95.675781 C 107.902344 95.378906 107.613281 95.070312 107.324219 94.753906 C 108.859375 96.714844 110.59375 98.652344 112.550781 100.53125 C 124.050781 111.585938 144.4375 121.816406 159.324219 129.28125 L 160.132812 129.6875 L 160.316406 130.164062 C 160.90625 131.71875 161.503906 133.304688 162.113281 134.914062 C 165.554688 144.03125 169.457031 154.363281 174.757812 165.503906 L 175.914062 167.929688 L 173.289062 167.351562 C 165.734375 165.671875 160.996094 163.65625 155.507812 161.328125 L 154.53125 160.910156 C 147.421875 157.898438 140.734375 154.25 134.738281 150.167969 C 141.363281 155.859375 150.453125 162.066406 162.269531 166.824219 C 164.132812 167.582031 165.582031 168.289062 166.984375 168.980469 C 169.578125 170.253906 171.824219 171.355469 175.90625 172.3125 L 176.503906 172.457031 L 176.78125 173.003906 C 177.265625 173.980469 180.851562 193.914062 180.890625 194.109375 L 181.300781 196.351562 C 181.425781 196.707031 178.71875 195.304688 178.746094 195.324219 C 178.402344 195.074219 176.148438 193.886719 173.539062 192.511719 C 157.078125 183.84375 113.355469 160.820312 96.589844 140.902344 C 94.636719 138.460938 92.820312 135.652344 91.175781 132.566406 C 93.496094 137.574219 96.613281 142.734375 100.800781 147.6875 C 110.640625 159.394531 125.738281 168.257812 140.335938 176.828125 L 145.550781 180.523438 L 140.449219 179.839844 C 115.828125 175.59375 94.230469 169.285156 75.953125 161.011719 C 83.066406 164.730469 92.882812 168.90625 106.570312 173.117188 L 109.886719 174.136719 L 106.605469 175.613281 C 104.273438 176.40625 102.09375 177.007812 100.121094 177.40625 C 98.480469 177.734375 96.8125 178.007812 95.125 178.226562 C 99.277344 178.09375 103.367188 177.597656 107.304688 176.757812 C 107.890625 176.628906 111.777344 175.011719 112.160156 174.835938 C 123.902344 178.347656 138.117188 182.011719 155.605469 186.035156 L 155.824219 186.085938 L 156.011719 186.207031 C 158.550781 187.804688 160.785156 189.289062 162.839844 190.734375 L 165.746094 192.78125 L 162.207031 193.113281 C 158.746094 193.4375 155.304688 194.347656 151.980469 195.816406 C 150.285156 196.566406 148.691406 197.585938 147.003906 198.664062 C 145.714844 199.488281 144.382812 200.339844 142.949219 201.105469 C 136.289062 204.644531 128.953125 205.96875 123.589844 206.933594 C 120.570312 207.476562 117.4375 207.886719 114.285156 208.160156 C 114.320312 208.160156 114.347656 208.160156 114.378906 208.160156 C 120.148438 208.160156 125.898438 207.625 131.445312 206.578125 L 131.546875 206.550781 L 136.023438 205.863281 L 132.582031 208.890625 C 128.453125 211.992188 123.902344 215.203125 118.796875 217.507812 C 121.515625 216.589844 124.703125 215.269531 128.40625 213.390625 C 130.609375 212.265625 132.910156 211.027344 135.132812 209.828125 C 144.683594 204.6875 154.550781 199.367188 163.253906 199.367188 C 169.332031 199.367188 174.285156 202.046875 177.980469 207.324219 C 181.585938 212.46875 182.449219 219.164062 182.785156 223.75 C 184.308594 244.652344 180.628906 269.082031 169.269531 279.375 C 171.753906 279.597656 174.933594 281.265625 177.355469 281.265625 C 178.023438 281.265625 180.800781 282.589844 181.300781 282.558594 C 191.996094 281.824219 200.621094 280.421875 211.132812 279.933594 C 209.128906 273.777344 202.820312 251.5625 204.746094 237.296875 C 207.996094 213.273438 226.191406 210.492188 239.59375 210.492188 C 241.050781 210.492188 242.582031 210.527344 244.398438 210.589844 L 244.9375 210.609375 L 245.304688 211 C 247.230469 213.023438 249.132812 214.773438 250.957031 216.195312 C 254.097656 218.636719 257.398438 220.636719 260.589844 222.261719 C 258.59375 220.875 256.867188 219.578125 255.492188 218.542969 C 253.84375 217.308594 252.054688 215.589844 249.867188 213.144531 L 247.703125 210.722656 L 250.941406 210.964844 C 252.132812 211.054688 253.34375 211.148438 254.574219 211.246094 C 258.4375 211.554688 262.429688 211.871094 266.707031 212.023438 C 268.777344 212.109375 270.78125 212.152344 272.660156 212.152344 C 275.34375 212.152344 277.710938 212.066406 279.804688 211.914062 C 271.722656 211.90625 263.078125 210.457031 254.722656 209.046875 C 248.945312 208.074219 242.972656 207.066406 237.363281 206.582031 L 232.609375 206.167969 L 236.910156 204.09375 C 238.695312 203.230469 240.367188 202.308594 241.929688 201.355469 C 237.777344 203.207031 234.082031 204.34375 231.445312 205.011719 C 228.683594 205.699219 223.046875 206.792969 220.925781 207.207031 C 220.59375 207.269531 220.191406 207.351562 220.191406 207.351562 C 211.375 209.226562 205.855469 213.089844 202.773438 216 L 201.074219 217.605469 L 200.484375 214.820312 C 199.699219 211.109375 199.015625 207.902344 199.863281 205.484375 C 203.164062 196 217.847656 182.550781 227.222656 176.03125 L 227.695312 175.703125 L 231.476562 176.554688 C 248.101562 180.324219 268.792969 185.007812 284.570312 185.007812 C 285.5 185.003906 286.421875 184.984375 287.324219 184.953125 C 273.730469 184.308594 254.042969 180.519531 233.515625 174.542969 L 230.621094 173.699219 L 233.210938 172.15625 C 243.847656 165.820312 255.28125 161.558594 268.519531 156.625 "/><path style=" stroke:none;fill-rule:nonzero;fill:#ffffff;fill-opacity:1;" d="M 140.195312 27.429688 C 140.191406 27.460938 131.066406 39.761719 144.667969 49.011719 C 144.667969 49.046875 153.925781 37.214844 140.195312 27.429688 "/><path style=" stroke:none;fill-rule:nonzero;fill:#ffffff;fill-opacity:1;" d="M 45.355469 126.082031 C 45.367188 126.128906 44.285156 136.007812 57.109375 135.246094 C 57.121094 135.300781 58.40625 125.183594 45.355469 126.082031 "/><path style=" stroke:none;fill-rule:nonzero;fill:#ffffff;fill-opacity:1;" d="M 58.96875 115.933594 C 58.976562 115.964844 58.414062 123.855469 68.699219 123.132812 C 68.707031 123.164062 69.457031 115.15625 58.96875 115.933594 "/><path style=" stroke:none;fill-rule:nonzero;fill:#ffffff;fill-opacity:1;" d="M 152.492188 31.128906 C 152.492188 31.128906 146.074219 36.96875 152.160156 43.582031 C 152.15625 43.582031 158.578125 38.070312 152.492188 31.128906 "/><path style=" stroke:none;fill-rule:nonzero;fill:#ffffff;fill-opacity:1;" d="M 156.878906 27.382812 C 156.875 27.386719 155.164062 31.96875 160.328125 35.191406 C 160.65625 33.710938 162.058594 30.703125 156.878906 27.382812 "/><path style=" stroke:none;fill-rule:nonzero;fill:#ffffff;fill-opacity:1;" d="M 193.433594 25.242188 C 193.425781 25.199219 180.441406 33.300781 189.390625 47.328125 C 189.386719 47.28125 202.285156 39.917969 193.433594 25.242188 "/><path style=" stroke:none;fill-rule:nonzero;fill:#ffffff;fill-opacity:1;" d="M 207.113281 22.867188 C 207.105469 22.875 198.074219 33.917969 211.847656 45.148438 C 211.839844 45.15625 221.015625 34.734375 207.113281 22.867188 "/><path style=" stroke:none;fill-rule:nonzero;fill:#ffffff;fill-opacity:1;" d="M 130.894531 43.503906 C 130.894531 43.570312 124.253906 56.824219 139.738281 63.480469 C 139.738281 63.546875 146.605469 50.503906 130.894531 43.503906 "/><path style=" stroke:none;fill-rule:nonzero;fill:#ffffff;fill-opacity:1;" d="M 159.703125 41.132812 C 159.695312 41.066406 144.875 47.351562 149.699219 62.386719 C 149.691406 62.328125 164.277344 56.738281 159.703125 41.132812 "/><path style=" stroke:none;fill-rule:nonzero;fill:#ffffff;fill-opacity:1;" d="M 171.746094 43.859375 C 171.738281 43.824219 160.746094 48.121094 164.304688 59.390625 C 164.304688 59.355469 175.121094 55.519531 171.746094 43.859375 "/><path style=" stroke:none;fill-rule:nonzero;fill:#ffffff;fill-opacity:1;" d="M 200.292969 46.929688 C 200.289062 46.890625 189.277344 50.464844 192.808594 61.964844 C 192.804688 61.929688 203.628906 58.785156 200.292969 46.929688 "/><path style=" stroke:none;fill-rule:nonzero;fill:#ffffff;fill-opacity:1;" d="M 170.714844 24.203125 C 170.707031 24.15625 159.699219 28.503906 163.265625 39.757812 C 163.261719 39.71875 174.09375 35.847656 170.714844 24.203125 "/><path style=" stroke:none;fill-rule:nonzero;fill:#ffffff;fill-opacity:1;" d="M 179.730469 64.179688 C 179.730469 64.136719 167.976562 65.625 168.046875 77.492188 C 168.046875 77.449219 179.507812 76.273438 179.730469 64.179688 "/><path style=" stroke:none;fill-rule:nonzero;fill:#ffffff;fill-opacity:1;" d="M 203.035156 53.171875 C 203.035156 53.183594 197.761719 60.507812 207.417969 66.242188 C 207.414062 66.25 212.804688 59.238281 203.035156 53.171875 "/><path style=" stroke:none;fill-rule:nonzero;fill:#ffffff;fill-opacity:1;" d="M 79.601562 68.578125 C 79.609375 68.613281 77.410156 77.371094 88.257812 77.3125 C 88.265625 77.351562 90.636719 68.539062 79.601562 68.578125 "/><path style=" stroke:none;fill-rule:nonzero;fill:#ffffff;fill-opacity:1;" d="M 176.199219 79.53125 C 176.199219 79.5 166.109375 80.335938 166.714844 90.324219 C 166.714844 90.296875 176.574219 89.730469 176.199219 79.53125 "/><path style=" stroke:none;fill-rule:nonzero;fill:#ffffff;fill-opacity:1;" d="M 223.523438 40.839844 C 223.523438 40.800781 213.40625 40.519531 213.964844 50.546875 C 213.964844 50.515625 223.851562 50.996094 223.523438 40.839844 "/><path style=" stroke:none;fill-rule:nonzero;fill:#ffffff;fill-opacity:1;" d="M 188.058594 80.324219 C 188.058594 80.304688 179.90625 81.324219 181.109375 89.40625 C 181.109375 89.390625 189.09375 88.601562 188.058594 80.324219 "/><path style=" stroke:none;fill-rule:nonzero;fill:#ffffff;fill-opacity:1;" d="M 188.128906 63.460938 C 188.128906 63.480469 187.710938 56.175781 178.425781 56.566406 C 178.425781 56.589844 178.628906 63.570312 188.128906 63.460938 "/><path style=" stroke:none;fill-rule:nonzero;fill:#ffffff;fill-opacity:1;" d="M 189.960938 72.175781 C 189.960938 72.191406 189.597656 65.824219 181.503906 66.117188 C 181.503906 66.132812 181.679688 72.238281 189.960938 72.175781 "/><path style=" stroke:none;fill-rule:nonzero;fill:#ffffff;fill-opacity:1;" d="M 193.015625 77.191406 C 193.015625 77.199219 190.929688 72.429688 184.878906 74.414062 C 184.878906 74.421875 186.777344 79.027344 193.015625 77.191406 "/><path style=" stroke:none;fill-rule:nonzero;fill:#ffffff;fill-opacity:1;" d="M 200.09375 88.335938 C 200.09375 88.351562 197.3125 81.929688 189.230469 84.503906 C 189.230469 84.519531 191.765625 90.679688 200.09375 88.335938 "/><path style=" stroke:none;fill-rule:nonzero;fill:#ffffff;fill-opacity:1;" d="M 182.382812 72.042969 C 182.378906 72.027344 174.800781 74.949219 178.34375 82.4375 C 178.339844 82.421875 185.820312 79.792969 182.382812 72.042969 "/><path style=" stroke:none;fill-rule:nonzero;fill:#ffffff;fill-opacity:1;" d="M 203.476562 42.089844 C 203.476562 42.105469 200.175781 48.535156 208.640625 52.304688 C 208.636719 52.316406 212.074219 46.097656 203.476562 42.089844 "/><path style=" stroke:none;fill-rule:nonzero;fill:#ffffff;fill-opacity:1;" d="M 177.074219 20.179688 C 177.074219 20.195312 173.777344 26.832031 182.277344 30.105469 C 182.273438 30.121094 185.703125 23.664062 177.074219 20.179688 "/><path style=" stroke:none;fill-rule:nonzero;fill:#ffffff;fill-opacity:1;" d="M 128.191406 32.128906 C 128.191406 32.152344 124.949219 39.105469 133.398438 41.363281 C 133.398438 41.382812 136.765625 34.5625 128.191406 32.128906 "/><path style=" stroke:none;fill-rule:nonzero;fill:#ffffff;fill-opacity:1;" d="M 172.851562 106.019531 C 172.851562 106.023438 179.027344 98.851562 170.125 92.84375 C 170.121094 92.851562 163.894531 99.730469 172.851562 106.019531 "/><path style=" stroke:none;fill-rule:nonzero;fill:#ffffff;fill-opacity:1;" d="M 186.730469 54.253906 C 186.730469 54.285156 188.621094 45.464844 177.417969 43.582031 C 177.414062 43.609375 175.324219 52.019531 186.730469 54.253906 "/><path style=" stroke:none;fill-rule:nonzero;fill:#ffffff;fill-opacity:1;" d="M 182.09375 99.164062 C 182.09375 99.140625 190.855469 98.734375 190.410156 90.070312 C 190.410156 90.050781 181.832031 90.246094 182.09375 99.164062 "/><path style=" stroke:none;fill-rule:nonzero;fill:#ffffff;fill-opacity:1;" d="M 147.722656 139.636719 C 147.722656 139.617188 156.425781 138.6875 155.957031 130.054688 C 155.953125 130.039062 147.429688 130.769531 147.722656 139.636719 "/><path style=" stroke:none;fill-rule:nonzero;fill:#ffffff;fill-opacity:1;" d="M 166.746094 66.207031 C 166.742188 66.183594 175.53125 65.5 175.070312 56.847656 C 175.066406 56.824219 166.464844 57.308594 166.746094 66.207031 "/><path style=" stroke:none;fill-rule:nonzero;fill:#ffffff;fill-opacity:1;" d="M 171.976562 40.921875 C 171.976562 40.894531 180.789062 40.308594 180.332031 31.652344 C 180.332031 31.625 171.703125 32.007812 171.976562 40.921875 "/><path style=" stroke:none;fill-rule:nonzero;fill:#ffffff;fill-opacity:1;" d="M 165.152344 106.484375 C 165.148438 106.507812 161.015625 115.222656 171.980469 119.152344 C 171.980469 119.171875 176.285156 110.671875 165.152344 106.484375 "/><path style=" stroke:none;fill-rule:nonzero;fill:#ffffff;fill-opacity:1;" d="M 153.816406 72.015625 C 153.8125 72.039062 149.679688 80.84375 160.679688 84.484375 C 160.679688 84.507812 164.984375 75.890625 153.816406 72.015625 "/><path style=" stroke:none;fill-rule:nonzero;fill:#ffffff;fill-opacity:1;" d="M 155.898438 62.886719 C 155.898438 62.910156 153.5 70.503906 163.113281 72.519531 C 163.113281 72.542969 165.6875 65.0625 155.898438 62.886719 "/><path style=" stroke:none;fill-rule:nonzero;fill:#ffffff;fill-opacity:1;" d="M 198.949219 64.503906 C 198.945312 64.519531 194.765625 72.949219 205.765625 77.621094 C 205.761719 77.640625 210.121094 69.472656 198.949219 64.503906 "/><path style=" stroke:none;fill-rule:nonzero;fill:#ffffff;fill-opacity:1;" d="M 200.777344 139.914062 C 200.773438 139.921875 195.546875 147.351562 205.121094 152.898438 C 205.117188 152.90625 210.457031 145.785156 200.777344 139.914062 "/><path style=" stroke:none;fill-rule:nonzero;fill:#ffffff;fill-opacity:1;" d="M 204.417969 132.101562 C 204.417969 132.105469 201.144531 138.59375 209.53125 142.226562 C 209.527344 142.238281 212.933594 135.972656 204.417969 132.101562 "/><path style=" stroke:none;fill-rule:nonzero;fill:#ffffff;fill-opacity:1;" d="M 196.726562 151.3125 C 196.726562 151.328125 192.582031 159.84375 203.484375 164.316406 C 203.480469 164.332031 207.800781 156.089844 196.726562 151.3125 "/><path style=" stroke:none;fill-rule:nonzero;fill:#ffffff;fill-opacity:1;" d="M 196.582031 164.472656 C 196.582031 164.488281 192.445312 173.011719 203.332031 177.460938 C 203.328125 177.472656 207.644531 169.222656 196.582031 164.472656 "/><path style=" stroke:none;fill-rule:nonzero;fill:#ffffff;fill-opacity:1;" d="M 189.246094 116.195312 C 189.246094 116.164062 178.652344 115.277344 177.378906 125.828125 C 177.378906 125.800781 187.679688 126.867188 189.246094 116.195312 "/><path style=" stroke:none;fill-rule:nonzero;fill:#ffffff;fill-opacity:1;" d="M 181.640625 109.734375 C 181.640625 109.714844 191.480469 112.277344 194.875 102.660156 C 194.878906 102.636719 185.332031 99.785156 181.640625 109.734375 "/><path style=" stroke:none;fill-rule:nonzero;fill:#ffffff;fill-opacity:1;" d="M 210.320312 89.203125 C 210.324219 89.179688 220.136719 92.375 223.65625 83.058594 C 223.65625 83.039062 214.144531 79.535156 210.320312 89.203125 "/><path style=" stroke:none;fill-rule:nonzero;fill:#ffffff;fill-opacity:1;" d="M 213.871094 79.140625 C 213.875 79.113281 224.09375 80.75 225.425781 70.871094 C 225.429688 70.84375 215.46875 68.917969 213.871094 79.140625 "/><path style=" stroke:none;fill-rule:nonzero;fill:#ffffff;fill-opacity:1;" d="M 214.277344 67.984375 C 214.277344 67.957031 224.449219 70.023438 226.300781 60.269531 C 226.304688 60.238281 216.402344 57.878906 214.277344 67.984375 "/><path style=" stroke:none;fill-rule:nonzero;fill:#ffffff;fill-opacity:1;" d="M 215.113281 58.230469 C 215.113281 58.199219 225.292969 60.316406 227.148438 50.570312 C 227.148438 50.542969 217.242188 48.128906 215.113281 58.230469 "/><path style=" stroke:none;fill-rule:nonzero;fill:#ffffff;fill-opacity:1;" d="M 253.265625 35.882812 C 253.261719 35.847656 243.726562 40.601562 250.566406 51.820312 C 250.566406 51.78125 260.027344 47.535156 253.265625 35.882812 "/><path style=" stroke:none;fill-rule:nonzero;fill:#ffffff;fill-opacity:1;" d="M 243.148438 99.515625 C 243.152344 99.523438 234.996094 92.558594 226.148438 99.171875 C 226.148438 99.1875 233.929688 105.769531 243.148438 99.515625 "/><path style=" stroke:none;fill-rule:nonzero;fill:#ffffff;fill-opacity:1;" d="M 236.53125 106.574219 C 236.539062 106.574219 227.355469 100.914062 220 108.960938 C 220 108.96875 228.804688 114.351562 236.53125 106.574219 "/><path style=" stroke:none;fill-rule:nonzero;fill:#ffffff;fill-opacity:1;" d="M 224.992188 114.523438 C 224.996094 114.519531 215.445312 109.644531 208.792969 118.351562 C 208.796875 118.347656 217.964844 123.03125 224.992188 114.523438 "/><path style=" stroke:none;fill-rule:nonzero;fill:#ffffff;fill-opacity:1;" d="M 239.171875 55.757812 C 239.171875 55.738281 231.429688 60.488281 238.601562 68.972656 C 238.597656 68.953125 246.328125 64.609375 239.171875 55.757812 "/><path style=" stroke:none;fill-rule:nonzero;fill:#ffffff;fill-opacity:1;" d="M 261.675781 55.023438 C 261.679688 55.007812 252.703125 51.347656 249.824219 59.71875 C 249.824219 59.703125 258.527344 63.292969 261.675781 55.023438 "/><path style=" stroke:none;fill-rule:nonzero;fill:#ffffff;fill-opacity:1;" d="M 243.648438 46.066406 C 243.648438 46.058594 238.117188 50.605469 244.867188 56.976562 C 244.863281 56.972656 250.425781 52.746094 243.648438 46.066406 "/><path style=" stroke:none;fill-rule:nonzero;fill:#ffffff;fill-opacity:1;" d="M 263.792969 96.722656 C 263.792969 96.703125 257.023438 99.632812 262.019531 107.03125 C 262.019531 107.015625 268.742188 104.394531 263.792969 96.722656 "/><path style=" stroke:none;fill-rule:nonzero;fill:#ffffff;fill-opacity:1;" d="M 270.359375 91.011719 C 270.359375 90.992188 263.605469 93.78125 268.589844 101.246094 C 268.589844 101.226562 275.300781 98.742188 270.359375 91.011719 "/><g clip-rule="nonzero" clip-path="url(#87a00cb9cc)"><path style=" stroke:none;fill-rule:nonzero;fill:#ffffff;fill-opacity:1;" d="M 198.867188 19.976562 C 198.867188 19.976562 193.453125 25.003906 200.109375 30.625 C 200.105469 30.621094 205.550781 25.886719 198.867188 19.976562 "/></g><path style=" stroke:none;fill-rule:nonzero;fill:#ffffff;fill-opacity:1;" d="M 289.226562 65.066406 C 289.230469 65.03125 280.203125 65.359375 283.195312 74.824219 C 283.199219 74.789062 292.074219 74.710938 289.226562 65.066406 "/><path style=" stroke:none;fill-rule:nonzero;fill:#ffffff;fill-opacity:1;" d="M 294.644531 113.878906 C 294.644531 113.867188 289.347656 117.742188 295.769531 124.234375 C 295.769531 124.21875 301.085938 120.664062 294.644531 113.878906 "/><path style=" stroke:none;fill-rule:nonzero;fill:#ffffff;fill-opacity:1;" d="M 321.613281 126.847656 C 321.617188 126.835938 313.910156 124.210938 312.960938 131.394531 C 312.960938 131.382812 320.476562 133.996094 321.613281 126.847656 "/><path style=" stroke:none;fill-rule:nonzero;fill:#ffffff;fill-opacity:1;" d="M 313.59375 94.375 C 313.605469 94.347656 304.402344 91.574219 303.882812 100.351562 C 303.890625 100.328125 312.867188 103.105469 313.59375 94.375 "/><path style=" stroke:none;fill-rule:nonzero;fill:#ffffff;fill-opacity:1;" d="M 304.574219 80.675781 C 304.578125 80.644531 295.722656 79.542969 297.136719 88.484375 C 297.140625 88.453125 305.8125 89.699219 304.574219 80.675781 "/><path style=" stroke:none;fill-rule:nonzero;fill:#ffffff;fill-opacity:1;" d="M 318.230469 135.34375 C 318.230469 135.34375 311.089844 131.019531 307.585938 137.105469 C 307.589844 137.109375 314.503906 141.285156 318.230469 135.34375 "/><path style=" stroke:none;fill-rule:nonzero;fill:#ffffff;fill-opacity:1;" d="M 305.292969 124.652344 C 305.296875 124.628906 298.050781 125.542969 301.230469 133.238281 C 301.234375 133.214844 308.367188 132.523438 305.292969 124.652344 "/><path style=" stroke:none;fill-rule:nonzero;fill:#ffffff;fill-opacity:1;" d="M 277.503906 55.769531 C 277.503906 55.753906 271.660156 59.144531 277.582031 66.101562 C 277.582031 66.085938 283.417969 63.015625 277.503906 55.769531 "/><path style=" stroke:none;fill-rule:nonzero;fill:#ffffff;fill-opacity:1;" d="M 263.175781 44.925781 C 263.179688 44.902344 255.308594 44.558594 256.566406 52.484375 C 256.570312 52.464844 264.28125 52.96875 263.175781 44.925781 "/><path style=" stroke:none;fill-rule:nonzero;fill:#ffffff;fill-opacity:1;" d="M 297.121094 130.859375 C 297.125 130.835938 289.859375 131.9375 293.042969 139.609375 C 293.046875 139.585938 300.207031 138.714844 297.121094 130.859375 "/><path style=" stroke:none;fill-rule:nonzero;fill:#ffffff;fill-opacity:1;" d="M 308.445312 149.890625 C 308.441406 149.914062 303.832031 143.539062 296.695312 146.574219 C 296.695312 146.59375 301.066406 152.710938 308.445312 149.890625 "/><path style=" stroke:none;fill-rule:nonzero;fill:#ffffff;fill-opacity:1;" d="M 302.1875 155.90625 C 302.1875 155.929688 299.277344 149.113281 291.070312 150.40625 C 291.070312 150.429688 293.75 156.980469 302.1875 155.90625 "/><path style=" stroke:none;fill-rule:nonzero;fill:#ffffff;fill-opacity:1;" d="M 289.007812 167.042969 C 289.003906 167.058594 286.078125 160.277344 277.84375 161.875 C 277.84375 161.890625 280.535156 168.429688 289.007812 167.042969 "/><path style=" stroke:none;fill-rule:nonzero;fill:#ffffff;fill-opacity:1;" d="M 301.804688 169.113281 C 301.804688 169.128906 298.898438 162.359375 290.695312 163.75 C 290.691406 163.769531 293.371094 170.296875 301.804688 169.113281 "/><path style=" stroke:none;fill-rule:nonzero;fill:#ffffff;fill-opacity:1;" d="M 313.597656 152.910156 C 313.601562 152.894531 305.828125 151.449219 305.980469 158.980469 C 305.984375 158.964844 313.578125 160.472656 313.597656 152.910156 "/><path style=" stroke:none;fill-rule:nonzero;fill:#ffffff;fill-opacity:1;" d="M 315.542969 165.605469 C 315.542969 165.621094 309.730469 160 303.851562 164.460938 C 303.851562 164.476562 309.421875 169.875 315.542969 165.605469 "/><path style=" stroke:none;fill-rule:nonzero;fill:#ffffff;fill-opacity:1;" d="M 313.996094 142.40625 C 314 142.414062 307.472656 137.308594 302.628906 142.578125 C 302.628906 142.585938 308.917969 147.496094 313.996094 142.40625 "/><path style=" stroke:none;fill-rule:nonzero;fill:#ffffff;fill-opacity:1;" d="M 267.085938 148.140625 C 267.085938 148.15625 262.855469 141.757812 255.296875 144.980469 C 255.296875 145 259.273438 151.164062 267.085938 148.140625 "/><path style=" stroke:none;fill-rule:nonzero;fill:#ffffff;fill-opacity:1;" d="M 275.425781 145.757812 C 275.425781 145.773438 271.222656 139.324219 263.660156 142.386719 C 263.660156 142.402344 267.609375 148.609375 275.425781 145.757812 "/><path style=" stroke:none;fill-rule:nonzero;fill:#ffffff;fill-opacity:1;" d="M 282.199219 141.578125 C 282.199219 141.59375 278.398438 135.710938 271.546875 138.351562 C 271.546875 138.367188 275.125 144.03125 282.199219 141.578125 "/><path style=" stroke:none;fill-rule:nonzero;fill:#ffffff;fill-opacity:1;" d="M 284.859375 135.160156 C 284.859375 135.164062 280.496094 131.761719 277.007812 135.433594 C 277.011719 135.4375 281.199219 138.757812 284.859375 135.160156 "/><path style=" stroke:none;fill-rule:nonzero;fill:#ffffff;fill-opacity:1;" d="M 266.542969 125.554688 C 266.542969 125.523438 257.675781 128.296875 262.683594 137.699219 C 262.683594 137.667969 271.453125 135.25 266.542969 125.554688 "/><path style=" stroke:none;fill-rule:nonzero;fill:#ffffff;fill-opacity:1;" d="M 273.9375 123.1875 C 273.9375 123.164062 266.789062 125.390625 270.992188 133.039062 C 270.992188 133.023438 278.058594 131.074219 273.9375 123.1875 "/><path style=" stroke:none;fill-rule:nonzero;fill:#ffffff;fill-opacity:1;" d="M 257.210938 128.65625 C 257.210938 128.636719 250.042969 131.144531 254.269531 138.722656 C 254.269531 138.703125 261.363281 136.476562 257.210938 128.65625 "/><path style=" stroke:none;fill-rule:nonzero;fill:#ffffff;fill-opacity:1;" d="M 226.609375 75.917969 C 226.605469 75.910156 221.085938 80.761719 227.84375 86.839844 C 227.839844 86.832031 233.402344 82.289062 226.609375 75.917969 "/><path style=" stroke:none;fill-rule:nonzero;fill:#ffffff;fill-opacity:1;" d="M 211.882812 91.828125 C 211.878906 91.824219 206.363281 96.886719 213.132812 102.75 C 213.132812 102.746094 218.679688 97.980469 211.882812 91.828125 "/><path style=" stroke:none;fill-rule:nonzero;fill:#ffffff;fill-opacity:1;" d="M 231.125 64.488281 C 231.121094 64.480469 224.023438 70.738281 232.863281 78.652344 C 232.859375 78.644531 240.003906 72.808594 231.125 64.488281 "/><path style=" stroke:none;fill-rule:nonzero;fill:#ffffff;fill-opacity:1;" d="M 233.828125 90.835938 C 233.832031 90.839844 242.144531 96.839844 248.960938 89.675781 C 248.964844 89.683594 241.019531 83.351562 233.828125 90.835938 "/><path style=" stroke:none;fill-rule:nonzero;fill:#ffffff;fill-opacity:1;" d="M 213.511719 138.277344 C 213.515625 138.226562 227.085938 136.003906 223.421875 122.335938 C 223.421875 122.28125 210.058594 124.1875 213.511719 138.277344 "/><path style=" stroke:none;fill-rule:nonzero;fill:#ffffff;fill-opacity:1;" d="M 272.9375 101.285156 C 272.949219 101.246094 286.59375 105.800781 289.457031 93.371094 C 289.46875 93.335938 276.214844 88.234375 272.9375 101.285156 "/><path style=" stroke:none;fill-rule:nonzero;fill:#ffffff;fill-opacity:1;" d="M 283.652344 88.996094 C 283.667969 88.925781 297.34375 90.390625 295.4375 76.816406 C 295.445312 76.746094 282.019531 74.90625 283.652344 88.996094 "/><path style=" stroke:none;fill-rule:nonzero;fill:#ffffff;fill-opacity:1;" d="M 278.398438 131.664062 C 278.402344 131.601562 291.613281 130.5 287.257812 116.890625 C 287.265625 116.828125 274.234375 117.609375 278.398438 131.664062 "/><path style=" stroke:none;fill-rule:nonzero;fill:#ffffff;fill-opacity:1;" d="M 300.058594 123.40625 C 300.066406 123.367188 309.773438 123.070312 306.574219 113 C 306.582031 112.960938 297.011719 113.023438 300.058594 123.40625 "/><path style=" stroke:none;fill-rule:nonzero;fill:#ffffff;fill-opacity:1;" d="M 282.539062 115.347656 C 282.542969 115.308594 292.320312 114.667969 289.097656 104.550781 C 289.101562 104.511719 279.460938 104.917969 282.539062 115.347656 "/><path style=" stroke:none;fill-rule:nonzero;fill:#ffffff;fill-opacity:1;" d="M 313.035156 123.933594 C 313.042969 123.867188 324.589844 121.835938 317.980469 108.992188 C 317.992188 108.925781 306.519531 110.746094 313.035156 123.933594 "/><path style=" stroke:none;fill-rule:nonzero;fill:#ffffff;fill-opacity:1;" d="M 266.421875 69.292969 C 266.421875 69.25 276.835938 64.09375 267.609375 52.078125 C 267.609375 52.035156 257.207031 56.992188 266.421875 69.292969 "/><path style=" stroke:none;fill-rule:nonzero;fill:#ffffff;fill-opacity:1;" d="M 217.644531 38.421875 C 217.644531 38.382812 227.414062 36.910156 224.488281 27.050781 C 224.492188 27.015625 214.871094 28.28125 217.644531 38.421875 "/><path style=" stroke:none;fill-rule:nonzero;fill:#ffffff;fill-opacity:1;" d="M 243.65625 43.464844 C 243.648438 43.472656 248.378906 36.371094 238.386719 30.285156 C 238.382812 30.292969 233.546875 37.117188 243.65625 43.464844 "/><path style=" stroke:none;fill-rule:nonzero;fill:#ffffff;fill-opacity:1;" d="M 250.21875 90.664062 C 250.230469 90.621094 263.980469 94.636719 266.855469 81.863281 C 266.863281 81.820312 253.492188 77.285156 250.21875 90.664062 "/><path style=" stroke:none;fill-rule:nonzero;fill:#ffffff;fill-opacity:1;" d="M 238.847656 81.964844 C 238.847656 81.964844 246.546875 87.625 252.863281 81.085938 C 252.867188 81.089844 245.507812 75.140625 238.847656 81.964844 "/><path style=" stroke:none;fill-rule:nonzero;fill:#ffffff;fill-opacity:1;" d="M 244.207031 74.140625 C 244.210938 74.132812 252.632812 78.972656 257.613281 71.621094 C 257.617188 71.621094 249.515625 66.476562 244.207031 74.140625 "/><path style=" stroke:none;fill-rule:nonzero;fill:#ffffff;fill-opacity:1;" d="M 267.984375 70.339844 C 267.988281 70.304688 258.71875 70.246094 260.589844 79.648438 C 260.59375 79.617188 269.679688 79.886719 267.984375 70.339844 "/><path style=" stroke:none;fill-rule:nonzero;fill:#ffffff;fill-opacity:1;" d="M 291.378906 102.921875 C 291.386719 102.855469 304.875 104.570312 302.859375 91.265625 C 302.871094 91.199219 289.628906 89.109375 291.378906 102.921875 "/><path style=" stroke:none;fill-rule:nonzero;fill:#ffffff;fill-opacity:1;" d="M 294.96875 111.113281 C 294.980469 111.082031 307.910156 115.941406 310.277344 104.289062 C 310.289062 104.257812 297.730469 98.886719 294.96875 111.113281 "/><path style=" stroke:none;fill-rule:nonzero;fill:#ffffff;fill-opacity:1;" d="M 248.25 66.378906 C 248.253906 66.371094 256.675781 71.3125 261.652344 64.046875 C 261.652344 64.046875 253.558594 58.800781 248.25 66.378906 "/><path style=" stroke:none;fill-rule:nonzero;fill:#ffffff;fill-opacity:1;" d="M 224.441406 138.679688 C 224.441406 138.667969 216.445312 137 214.808594 144.855469 C 214.8125 144.847656 222.574219 146.59375 224.441406 138.679688 "/><path style=" stroke:none;fill-rule:nonzero;fill:#ffffff;fill-opacity:1;" d="M 211.945312 160.867188 C 211.949219 160.851562 221.339844 163.113281 223.851562 153.996094 C 223.855469 153.980469 214.726562 151.457031 211.945312 160.867188 "/><path style=" stroke:none;fill-rule:nonzero;fill:#ffffff;fill-opacity:1;" d="M 212.328125 168.265625 C 212.332031 168.257812 221.554688 171.847656 225.800781 163.007812 C 225.800781 163 216.878906 159.132812 212.328125 168.265625 "/><path style=" stroke:none;fill-rule:nonzero;fill:#ffffff;fill-opacity:1;" d="M 213.136719 152.195312 C 213.140625 152.183594 221.1875 154.117188 223.292969 146.308594 C 223.296875 146.296875 215.480469 144.148438 213.136719 152.195312 "/><path style=" stroke:none;fill-rule:nonzero;fill:#ffffff;fill-opacity:1;" d="M 260.464844 94.257812 C 260.46875 94.25 253.140625 90.40625 249.480469 97.121094 C 249.484375 97.113281 256.558594 100.871094 260.464844 94.257812 "/><path style=" stroke:none;fill-rule:nonzero;fill:#ffffff;fill-opacity:1;" d="M 247.734375 105.027344 C 247.738281 105.027344 254.90625 109.207031 259.289062 102.894531 C 259.292969 102.894531 252.398438 98.492188 247.734375 105.027344 "/><path style=" stroke:none;fill-rule:nonzero;fill:#ffffff;fill-opacity:1;" d="M 267.140625 107.8125 C 267.140625 107.8125 274.273438 112.21875 278.636719 106.164062 C 278.640625 106.167969 271.792969 101.53125 267.140625 107.8125 "/><path style=" stroke:none;fill-rule:nonzero;fill:#ffffff;fill-opacity:1;" d="M 263.808594 113.339844 C 263.808594 113.34375 270.382812 118.371094 275.757812 112.972656 C 275.757812 112.976562 269.476562 107.742188 263.808594 113.339844 "/><path style=" stroke:none;fill-rule:nonzero;fill:#ffffff;fill-opacity:1;" d="M 259.789062 120.035156 C 259.792969 120.039062 266.375 124.996094 271.75 119.511719 C 271.75 119.519531 265.464844 114.355469 259.789062 120.035156 "/><path style=" stroke:none;fill-rule:nonzero;fill:#ffffff;fill-opacity:1;" d="M 230.921875 114.371094 C 230.921875 114.386719 230.632812 121.445312 239.777344 122.671875 C 239.773438 122.691406 240.285156 115.742188 230.921875 114.371094 "/><path style=" stroke:none;fill-rule:nonzero;fill:#ffffff;fill-opacity:1;" d="M 229.992188 122.898438 C 229.988281 122.921875 229.652344 131.300781 240.507812 132.722656 C 240.503906 132.746094 241.113281 124.484375 229.992188 122.898438 "/><path style=" stroke:none;fill-rule:nonzero;fill:#ffffff;fill-opacity:1;" d="M 245.449219 113.890625 C 245.453125 113.882812 253.257812 116.734375 255.886719 109.496094 C 255.890625 109.484375 248.328125 106.40625 245.449219 113.890625 "/><g clip-rule="nonzero" clip-path="url(#33387a1878)"><path style=" stroke:none;fill-rule:nonzero;fill:#ffffff;fill-opacity:1;" d="M 40.324219 138.277344 C 40.339844 138.355469 40.199219 151.132812 57.617188 149.007812 C 57.636719 149.09375 58.042969 135.714844 40.324219 138.277344 "/></g><path style=" stroke:none;fill-rule:nonzero;fill:#ffffff;fill-opacity:1;" d="M 83.925781 77.5625 C 83.925781 77.585938 72.957031 88.644531 82.808594 98.460938 C 82.808594 98.484375 93.78125 87.96875 83.925781 77.5625 "/><path style=" stroke:none;fill-rule:nonzero;fill:#ffffff;fill-opacity:1;" d="M 276.367188 68.558594 C 276.367188 68.5 265.148438 74.984375 274.894531 88.898438 C 274.894531 88.835938 286.058594 83.074219 276.367188 68.558594 "/><path style=" stroke:none;fill-rule:nonzero;fill:#ffffff;fill-opacity:1;" d="M 232.835938 35.816406 C 232.828125 35.773438 221.488281 43.414062 231.414062 56.769531 C 231.410156 56.722656 242.71875 49.792969 232.835938 35.816406 "/><path style=" stroke:none;fill-rule:nonzero;fill:#ffffff;fill-opacity:1;" d="M 106.453125 53.742188 C 106.453125 53.742188 99.847656 59.675781 105.148438 65.890625 C 105.144531 65.890625 111.726562 60.277344 106.453125 53.742188 "/><path style=" stroke:none;fill-rule:nonzero;fill:#ffffff;fill-opacity:1;" d="M 106.632812 47.6875 C 106.636719 47.714844 105.28125 55.253906 114.703125 56.0625 C 114.707031 56.09375 116.242188 48.558594 106.632812 47.6875 "/><path style=" stroke:none;fill-rule:nonzero;fill:#ffffff;fill-opacity:1;" d="M 118.230469 38.351562 C 118.226562 38.394531 109.894531 50.53125 123.015625 58.355469 C 123.015625 58.398438 131.484375 46.625 118.230469 38.351562 "/><path style=" stroke:none;fill-rule:nonzero;fill:#ffffff;fill-opacity:1;" d="M 52.035156 106.804688 C 52.050781 106.84375 53.855469 116.339844 67.566406 112.652344 C 67.578125 112.703125 66.03125 102.769531 52.035156 106.804688 "/><path style=" stroke:none;fill-rule:nonzero;fill:#ffffff;fill-opacity:1;" d="M 104.109375 122.996094 C 104.117188 123.035156 103.617188 133.171875 116.777344 133.425781 C 116.785156 133.46875 117.554688 123.21875 104.109375 122.996094 "/><path style=" stroke:none;fill-rule:nonzero;fill:#ffffff;fill-opacity:1;" d="M 94.390625 56.300781 C 94.386719 56.347656 84.542969 68.917969 97.089844 77.578125 C 97.085938 77.621094 107.019531 65.484375 94.390625 56.300781 "/><path style=" stroke:none;fill-rule:nonzero;fill:#ffffff;fill-opacity:1;" d="M 42.660156 155.710938 C 42.671875 155.730469 47.796875 166.644531 64.949219 159.808594 C 64.96875 159.847656 60.191406 148.214844 42.660156 155.710938 "/><path style=" stroke:none;fill-rule:nonzero;fill:#ffffff;fill-opacity:1;" d="M 62.558594 134.375 C 62.566406 134.457031 56.382812 147.804688 71.65625 152.460938 C 71.660156 152.542969 78.03125 139.171875 62.558594 134.375 "/><path style=" stroke:none;fill-rule:nonzero;fill:#ffffff;fill-opacity:1;" d="M 112.71875 143.964844 C 112.71875 143.984375 115 152.15625 125.960938 148.945312 C 125.964844 148.964844 123.96875 140.648438 112.71875 143.964844 "/><path style=" stroke:none;fill-rule:nonzero;fill:#ffffff;fill-opacity:1;" d="M 114.539062 82.4375 C 114.539062 82.441406 106.472656 89.328125 113.71875 96.3125 C 113.714844 96.316406 121.773438 89.800781 114.539062 82.4375 "/><path style=" stroke:none;fill-rule:nonzero;fill:#ffffff;fill-opacity:1;" d="M 107.082031 161.195312 C 107.085938 161.214844 103.855469 151.65625 91.234375 156.554688 C 91.238281 156.578125 94.054688 165.664062 107.082031 161.195312 "/><path style=" stroke:none;fill-rule:nonzero;fill:#ffffff;fill-opacity:1;" d="M 108.539062 75.773438 C 108.539062 75.773438 101.511719 81.4375 107.25 87.488281 C 107.246094 87.488281 114.253906 82.136719 108.539062 75.773438 "/><path style=" stroke:none;fill-rule:nonzero;fill:#ffffff;fill-opacity:1;" d="M 122.875 67.039062 C 122.878906 67.0625 119.628906 59.066406 108.917969 63.871094 C 108.925781 63.898438 111.8125 71.472656 122.875 67.039062 "/><path style=" stroke:none;fill-rule:nonzero;fill:#ffffff;fill-opacity:1;" d="M 128.585938 76.535156 C 128.589844 76.558594 125.339844 68.492188 114.621094 73.117188 C 114.628906 73.144531 117.515625 80.792969 128.585938 76.535156 "/><path style=" stroke:none;fill-rule:nonzero;fill:#ffffff;fill-opacity:1;" d="M 134.566406 83.625 C 134.570312 83.632812 132.296875 77.949219 124.761719 81.011719 C 124.765625 81.023438 126.792969 86.488281 134.566406 83.625 "/><path style=" stroke:none;fill-rule:nonzero;fill:#ffffff;fill-opacity:1;" d="M 141.675781 80.289062 C 141.675781 80.289062 146.972656 75.730469 141.777344 70.886719 C 141.773438 70.886719 136.480469 75.25 141.675781 80.289062 "/><path style=" stroke:none;fill-rule:nonzero;fill:#ffffff;fill-opacity:1;" d="M 150.371094 118.195312 C 150.371094 118.199219 155.660156 113.769531 150.476562 108.78125 C 150.476562 108.78125 145.191406 113.007812 150.371094 118.195312 "/><path style=" stroke:none;fill-rule:nonzero;fill:#ffffff;fill-opacity:1;" d="M 240.253906 141.109375 C 240.253906 141.121094 241.355469 135.109375 233.554688 133.300781 C 233.554688 133.304688 232.3125 139.101562 240.253906 141.109375 "/><path style=" stroke:none;fill-rule:nonzero;fill:#ffffff;fill-opacity:1;" d="M 141.425781 90.148438 C 141.425781 90.15625 139.160156 84.429688 131.617188 87.367188 C 131.617188 87.378906 133.648438 92.890625 141.425781 90.148438 "/><path style=" stroke:none;fill-rule:nonzero;fill:#ffffff;fill-opacity:1;" d="M 131.753906 68.648438 C 131.753906 68.652344 136.136719 63.917969 130.746094 60.148438 C 130.742188 60.152344 126.34375 64.691406 131.753906 68.648438 "/><path style=" stroke:none;fill-rule:nonzero;fill:#ffffff;fill-opacity:1;" d="M 137.414062 94.644531 C 137.414062 94.648438 140.5625 99.351562 147.03125 95.832031 C 147.03125 95.839844 144.101562 91.035156 137.414062 94.644531 "/><path style=" stroke:none;fill-rule:nonzero;fill:#ffffff;fill-opacity:1;" d="M 135.746094 74.261719 C 135.746094 74.257812 141.285156 70.6875 137.464844 65.550781 C 137.460938 65.546875 131.964844 68.945312 135.746094 74.261719 "/><path style=" stroke:none;fill-rule:nonzero;fill:#ffffff;fill-opacity:1;" d="M 94.285156 109.398438 C 94.277344 109.390625 85.496094 114.210938 89.5625 122.140625 C 89.558594 122.132812 98.242188 117.699219 94.285156 109.398438 "/><path style=" stroke:none;fill-rule:nonzero;fill:#ffffff;fill-opacity:1;" d="M 98.609375 117.828125 C 98.605469 117.820312 89.8125 122.519531 93.882812 130.53125 C 93.875 130.523438 102.570312 126.199219 98.609375 117.828125 "/><path style=" stroke:none;fill-rule:nonzero;fill:#ffffff;fill-opacity:1;" d="M 100.363281 127.683594 C 100.363281 127.683594 94.046875 132.632812 99.101562 138.144531 C 99.101562 138.144531 105.390625 133.46875 100.363281 127.683594 "/><path style=" stroke:none;fill-rule:nonzero;fill:#ffffff;fill-opacity:1;" d="M 73.078125 165.007812 C 73.082031 165.003906 69.042969 160 61.613281 165.304688 C 61.617188 165.300781 65.347656 170.175781 73.078125 165.007812 "/><path style=" stroke:none;fill-rule:nonzero;fill:#ffffff;fill-opacity:1;" d="M 93.144531 173.304688 C 93.148438 173.300781 89.089844 168.046875 81.605469 173.097656 C 81.609375 173.097656 85.367188 178.210938 93.144531 173.304688 "/><path style=" stroke:none;fill-rule:nonzero;fill:#ffffff;fill-opacity:1;" d="M 80.203125 159.628906 C 80.203125 159.644531 83.539062 152.949219 75.730469 151 C 75.734375 151.015625 72.289062 157.417969 80.203125 159.628906 "/><path style=" stroke:none;fill-rule:nonzero;fill:#ffffff;fill-opacity:1;" d="M 88.34375 163.023438 C 88.34375 163.035156 91.691406 156.367188 83.863281 154.261719 C 83.867188 154.277344 80.414062 160.660156 88.34375 163.023438 "/><path style=" stroke:none;fill-rule:nonzero;fill:#ffffff;fill-opacity:1;" d="M 90.640625 143.648438 C 90.644531 143.65625 86.953125 136.519531 77.058594 141.851562 C 77.0625 141.859375 80.390625 148.695312 90.640625 143.648438 "/><path style=" stroke:none;fill-rule:nonzero;fill:#ffffff;fill-opacity:1;" d="M 90.75 100.511719 C 90.75 100.503906 83.402344 104.917969 87.183594 111.4375 C 87.183594 111.429688 94.453125 107.335938 90.75 100.511719 "/><path style=" stroke:none;fill-rule:nonzero;fill:#ffffff;fill-opacity:1;" d="M 116.28125 166.601562 C 116.285156 166.601562 112.207031 161.539062 105.175781 166.339844 C 105.179688 166.339844 108.980469 171.277344 116.28125 166.601562 "/><path style=" stroke:none;fill-rule:nonzero;fill:#ffffff;fill-opacity:1;" d="M 115.550781 214.828125 C 115.550781 214.828125 111.488281 209.691406 104.484375 214.3125 C 104.488281 214.308594 108.277344 219.347656 115.550781 214.828125 "/><path style=" stroke:none;fill-rule:nonzero;fill:#ffffff;fill-opacity:1;" d="M 62.664062 126.523438 C 62.667969 126.539062 63.734375 133.097656 72.730469 130.265625 C 72.738281 130.289062 71.867188 123.597656 62.664062 126.523438 "/><path style=" stroke:none;fill-rule:nonzero;fill:#ffffff;fill-opacity:1;" d="M 105.960938 67.007812 C 105.957031 66.996094 98.058594 71.253906 101.640625 78.414062 C 101.636719 78.402344 109.441406 74.488281 105.960938 67.007812 "/><path style=" stroke:none;fill-rule:nonzero;fill:#ffffff;fill-opacity:1;" d="M 157.265625 168.726562 C 157.265625 168.726562 150.976562 162.792969 143.066406 169.464844 C 143.066406 169.464844 149.007812 175.246094 157.265625 168.726562 "/><path style=" stroke:none;fill-rule:nonzero;fill:#ffffff;fill-opacity:1;" d="M 118.191406 180.179688 C 118.1875 180.179688 111.039062 184.933594 116.148438 191.597656 C 116.148438 191.597656 123.253906 187.140625 118.191406 180.179688 "/><path style=" stroke:none;fill-rule:nonzero;fill:#ffffff;fill-opacity:1;" d="M 126.082031 182.464844 C 126.082031 182.464844 120.5625 186.070312 124.503906 191.273438 C 124.5 191.273438 129.984375 187.890625 126.082031 182.464844 "/><path style=" stroke:none;fill-rule:nonzero;fill:#ffffff;fill-opacity:1;" d="M 179.703125 133.890625 C 179.699219 133.878906 171.722656 136.875 175.277344 144.792969 C 175.273438 144.78125 183.148438 142.082031 179.703125 133.890625 "/><path style=" stroke:none;fill-rule:nonzero;fill:#ffffff;fill-opacity:1;" d="M 107.429688 136.5625 C 107.433594 136.574219 110.34375 142.78125 118.90625 139.027344 C 118.910156 139.039062 116.242188 132.707031 107.429688 136.5625 "/><path style=" stroke:none;fill-rule:nonzero;fill:#ffffff;fill-opacity:1;" d="M 122.109375 153.488281 C 122.113281 153.5 125.972656 161.6875 137.066406 157.121094 C 137.066406 157.140625 133.53125 148.765625 122.109375 153.488281 "/><path style=" stroke:none;fill-rule:nonzero;fill:#ffffff;fill-opacity:1;" d="M 132.390625 162.144531 C 132.394531 162.152344 137.707031 169.730469 148.039062 163.960938 C 148.042969 163.976562 143.070312 156.183594 132.390625 162.144531 "/><path style=" stroke:none;fill-rule:nonzero;fill:#ffffff;fill-opacity:1;" d="M 157.953125 159.527344 C 157.949219 159.527344 165.148438 152.902344 157.1875 145.972656 C 157.1875 145.980469 149.980469 152.316406 157.953125 159.527344 "/><path style=" stroke:none;fill-rule:nonzero;fill:#ffffff;fill-opacity:1;" d="M 146.835938 154.316406 C 146.832031 154.328125 153.1875 146.878906 144.292969 141.023438 C 144.292969 141.03125 137.890625 148.164062 146.835938 154.316406 "/><path style=" stroke:none;fill-rule:nonzero;fill:#ffffff;fill-opacity:1;" d="M 136.734375 147.363281 C 136.734375 147.371094 142.679688 140.75 134.921875 135.386719 C 134.917969 135.398438 128.941406 141.730469 136.734375 147.363281 "/><path style=" stroke:none;fill-rule:nonzero;fill:#ffffff;fill-opacity:1;" d="M 127.160156 140.554688 C 127.160156 140.566406 132.710938 133.609375 124.609375 128.828125 C 124.609375 128.839844 119.003906 135.503906 127.160156 140.554688 "/><path style=" stroke:none;fill-rule:nonzero;fill:#ffffff;fill-opacity:1;" d="M 142.835938 114.925781 C 142.835938 114.933594 150.070312 106.910156 140.621094 100.386719 C 140.621094 100.398438 133.351562 108.089844 142.835938 114.925781 "/><path style=" stroke:none;fill-rule:nonzero;fill:#ffffff;fill-opacity:1;" d="M 131.078125 107.972656 C 131.074219 107.976562 138.855469 100.765625 130.707031 93.800781 C 130.707031 93.808594 122.933594 100.722656 131.078125 107.972656 "/><path style=" stroke:none;fill-rule:nonzero;fill:#ffffff;fill-opacity:1;" d="M 121.523438 101.398438 C 121.519531 101.398438 129.3125 95.375 122.859375 88.378906 C 122.859375 88.378906 115.109375 94.152344 121.523438 101.398438 "/><path style=" stroke:none;fill-rule:nonzero;fill:#ffffff;fill-opacity:1;" d="M 302.910156 172.183594 C 302.90625 172.222656 306.289062 181.566406 294.570312 181.984375 C 294.566406 182.023438 291.003906 172.65625 302.910156 172.183594 "/><path style=" stroke:none;fill-rule:nonzero;fill:#ffffff;fill-opacity:1;" d="M 313.199219 170.863281 C 313.195312 170.890625 316.429688 178.753906 306.757812 179.269531 C 306.753906 179.296875 303.386719 171.449219 313.199219 170.863281 "/><path style=" stroke:none;fill-rule:nonzero;fill:#ffffff;fill-opacity:1;" d="M 321.503906 166.933594 C 321.503906 166.957031 326.585938 174.433594 318.308594 176.777344 C 318.304688 176.804688 313.152344 169.449219 321.503906 166.933594 "/><path style=" stroke:none;fill-rule:nonzero;fill:#ffffff;fill-opacity:1;" d="M 254.34375 177.152344 C 254.339844 177.183594 252.832031 166.875 266.03125 167.949219 C 266.027344 167.984375 267.816406 177.792969 254.34375 177.152344 "/><path style=" stroke:none;fill-rule:nonzero;fill:#ffffff;fill-opacity:1;" d="M 270.078125 180.488281 C 270.074219 180.523438 267.421875 170.621094 279.785156 170.710938 C 279.78125 170.746094 282.667969 180.164062 270.078125 180.488281 "/><path style=" stroke:none;fill-rule:nonzero;fill:#ffffff;fill-opacity:1;" d="M 283.605469 181.527344 C 283.605469 181.558594 280.070312 172.609375 290.90625 171.757812 C 290.902344 171.789062 294.613281 180.316406 283.605469 181.527344 "/><path style=" stroke:none;fill-rule:nonzero;fill:#ffffff;fill-opacity:1;" d="M 131.355469 131.644531 C 131.359375 131.628906 140.480469 137.191406 148.757812 127.710938 C 148.761719 127.695312 140.003906 121.800781 131.355469 131.644531 "/><path style=" stroke:none;fill-rule:nonzero;fill:#ffffff;fill-opacity:1;" d="M 119.148438 125.738281 C 119.148438 125.71875 128.261719 131.039062 136.519531 121.386719 C 136.523438 121.371094 127.769531 115.714844 119.148438 125.738281 "/><path style=" stroke:none;fill-rule:nonzero;fill:#ffffff;fill-opacity:1;" d="M 82.019531 149.769531 C 82.023438 149.769531 86.757812 156.8125 97.050781 150.761719 C 97.058594 150.769531 92.621094 143.472656 82.019531 149.769531 "/><path style=" stroke:none;fill-rule:nonzero;fill:#ffffff;fill-opacity:1;" d="M 68.816406 170.324219 C 68.820312 170.308594 75.347656 175.910156 84.242188 168.210938 C 84.246094 168.203125 78.023438 162.363281 68.816406 170.324219 "/><g clip-rule="nonzero" clip-path="url(#2a84768f39)"><path style=" stroke:none;fill-rule:nonzero;fill:#ffffff;fill-opacity:1;" d="M 40.597656 169.09375 C 40.597656 169.070312 47.046875 174.160156 55.851562 166.148438 C 55.851562 166.132812 49.691406 160.796875 40.597656 169.09375 "/></g><path style=" stroke:none;fill-rule:nonzero;fill:#ffffff;fill-opacity:1;" d="M 112.121094 118.503906 C 112.125 118.492188 119.09375 122.425781 125.398438 114.914062 C 125.398438 114.902344 118.707031 110.746094 112.121094 118.503906 "/><path style=" stroke:none;fill-rule:nonzero;fill:#ffffff;fill-opacity:1;" d="M 102.292969 110.574219 C 102.296875 110.570312 107.828125 116.125 116.199219 109.664062 C 116.199219 109.664062 110.953125 103.867188 102.292969 110.574219 "/><path style=" stroke:none;fill-rule:nonzero;fill:#ffffff;fill-opacity:1;" d="M 87.667969 195.824219 C 87.667969 195.847656 86.09375 204.804688 97.480469 205.195312 C 97.484375 205.21875 99.277344 196.265625 87.667969 195.824219 "/><path style=" stroke:none;fill-rule:nonzero;fill:#ffffff;fill-opacity:1;" d="M 130.941406 202.496094 C 130.941406 202.511719 132.585938 194.84375 123.085938 193.855469 C 123.089844 193.871094 121.261719 201.222656 130.941406 202.496094 "/><path style=" stroke:none;fill-rule:nonzero;fill:#ffffff;fill-opacity:1;" d="M 92.839844 210.042969 C 92.84375 210.03125 86.832031 205.632812 80.214844 212.308594 C 80.214844 212.296875 85.90625 216.675781 92.839844 210.042969 "/><path style=" stroke:none;fill-rule:nonzero;fill:#ffffff;fill-opacity:1;" d="M 145.976562 196.042969 C 145.976562 196.054688 149.375 190.429688 142.539062 187.339844 C 142.539062 187.351562 139.0625 192.742188 145.976562 196.042969 "/><path style=" stroke:none;fill-rule:nonzero;fill:#ffffff;fill-opacity:1;" d="M 121.203125 204.558594 C 121.203125 204.582031 123.109375 195.757812 112.203125 194.761719 C 112.203125 194.78125 110.089844 203.21875 121.203125 204.558594 "/><path style=" stroke:none;fill-rule:nonzero;fill:#ffffff;fill-opacity:1;" d="M 109.84375 205.691406 C 109.84375 205.714844 111.679688 197.144531 101.082031 196.351562 C 101.085938 196.371094 99.042969 204.554688 109.84375 205.691406 "/><path style=" stroke:none;fill-rule:nonzero;fill:#ffffff;fill-opacity:1;" d="M 132.75 190.191406 C 132.75 190.207031 130.671875 197.410156 139.675781 199.039062 C 139.675781 199.054688 141.921875 191.964844 132.75 190.191406 "/><path style=" stroke:none;fill-rule:nonzero;fill:#ffffff;fill-opacity:1;" d="M 74.097656 130.632812 C 74.105469 130.660156 74.972656 139.644531 87.054688 136.796875 C 87.0625 136.828125 86.449219 127.636719 74.097656 130.632812 "/><path style=" stroke:none;fill-rule:nonzero;fill:#ffffff;fill-opacity:1;" d="M 71.902344 121.5625 C 71.90625 121.589844 73.058594 129.945312 84.421875 126.800781 C 84.425781 126.832031 83.519531 118.265625 71.902344 121.5625 "/><path style=" stroke:none;fill-rule:nonzero;fill:#ffffff;fill-opacity:1;" d="M 70.613281 112.140625 C 70.617188 112.164062 71.65625 119.667969 81.863281 116.710938 C 81.871094 116.738281 81.054688 109.066406 70.613281 112.140625 "/><path style=" stroke:none;fill-rule:nonzero;fill:#ffffff;fill-opacity:1;" d="M 73.859375 100.179688 C 73.859375 100.195312 71.914062 106.460938 79.535156 106.820312 C 79.539062 106.84375 81.605469 100.617188 73.859375 100.179688 "/><path style=" stroke:none;fill-rule:nonzero;fill:#ffffff;fill-opacity:1;" d="M 47.414062 120.230469 C 47.417969 120.238281 49.316406 125.421875 56.90625 121.742188 C 56.90625 121.75 55.191406 116.425781 47.414062 120.230469 "/><path style=" stroke:none;fill-rule:nonzero;fill:#ffffff;fill-opacity:1;" d="M 95.304688 103.890625 C 95.304688 103.882812 100.832031 109.3125 109.183594 102.722656 C 109.1875 102.722656 103.945312 97.039062 95.304688 103.890625 "/><path style=" stroke:none;fill-rule:nonzero;fill:#ffffff;fill-opacity:1;" d="M 90.925781 93.460938 C 90.929688 93.480469 93.21875 100.703125 103.273438 96.894531 C 103.28125 96.917969 101.238281 89.492188 90.925781 93.460938 "/><path style=" stroke:none;fill-rule:nonzero;fill:#ffffff;fill-opacity:1;" d="M 60.414062 91.683594 C 60.425781 91.742188 55.847656 102.925781 69.082031 104.300781 C 69.089844 104.363281 73.839844 93.121094 60.414062 91.683594 "/><path style=" stroke:none;fill-rule:nonzero;fill:#ffffff;fill-opacity:1;" d="M 70.925781 79.089844 C 70.929688 79.121094 64.304688 88.113281 73.855469 92.386719 C 73.855469 92.417969 80.554688 83.652344 70.925781 79.089844 "/><path style=" stroke:none;fill-rule:nonzero;fill:#ffffff;fill-opacity:1;" d="M 89.675781 84.703125 C 89.679688 84.71875 90.78125 90.777344 99.003906 88.304688 C 99.007812 88.320312 98.101562 82.160156 89.675781 84.703125 "/><path style=" stroke:none;fill-rule:nonzero;fill:#ffffff;fill-opacity:1;" d="M 249.480469 199.476562 C 249.476562 199.480469 251.832031 193.625 261.105469 196.988281 C 261.105469 196.996094 259.035156 202.648438 249.480469 199.476562 "/><path style=" stroke:none;fill-rule:nonzero;fill:#ffffff;fill-opacity:1;" d="M 256.59375 206.742188 C 256.59375 206.757812 256.535156 200.378906 266.230469 200.964844 C 266.226562 200.980469 266.515625 207.074219 256.59375 206.742188 "/><path style=" stroke:none;fill-rule:nonzero;fill:#ffffff;fill-opacity:1;" d="M 266.246094 208.355469 C 266.246094 208.371094 264.796875 202.027344 274.214844 201.0625 C 274.214844 201.082031 275.855469 207.121094 266.246094 208.355469 "/><path style=" stroke:none;fill-rule:nonzero;fill:#ffffff;fill-opacity:1;" d="M 276.257812 209.242188 C 276.253906 209.261719 273.78125 203.082031 282.75 201 C 282.75 201.019531 285.378906 206.882812 276.257812 209.242188 "/><path style=" stroke:none;fill-rule:nonzero;fill:#ffffff;fill-opacity:1;" d="M 286.015625 207.96875 C 286.015625 207.988281 284.335938 201.703125 293.632812 200.738281 C 293.632812 200.761719 295.496094 206.726562 286.015625 207.96875 "/><path style=" stroke:none;fill-rule:nonzero;fill:#ffffff;fill-opacity:1;" d="M 295.429688 208.8125 C 295.421875 208.839844 294.597656 201.0625 306.386719 201.570312 C 306.378906 201.601562 307.484375 208.9375 295.429688 208.8125 "/><path style=" stroke:none;fill-rule:nonzero;fill:#ffffff;fill-opacity:1;" d="M 272.058594 228.140625 C 272.058594 228.109375 281.230469 223.28125 290.386719 234.625 C 290.382812 234.597656 281.683594 239.542969 272.058594 228.140625 "/><path style=" stroke:none;fill-rule:nonzero;fill:#ffffff;fill-opacity:1;" d="M 241.265625 197.359375 C 241.265625 197.371094 237.511719 190.203125 245.679688 184.886719 C 245.683594 184.902344 249.53125 191.710938 241.265625 197.359375 "/><path style=" stroke:none;fill-rule:nonzero;fill:#ffffff;fill-opacity:1;" d="M 233.878906 201.742188 C 233.878906 201.75 228.382812 196.183594 234.507812 188.058594 C 234.507812 188.0625 240.011719 193.304688 233.878906 201.742188 "/><path style=" stroke:none;fill-rule:nonzero;fill:#ffffff;fill-opacity:1;" d="M 268.90625 196.101562 C 268.910156 196.078125 258.570312 196.171875 259.113281 185.589844 C 259.117188 185.566406 269.238281 185.328125 268.90625 196.101562 "/><path style=" stroke:none;fill-rule:nonzero;fill:#ffffff;fill-opacity:1;" d="M 281.820312 197.160156 C 281.828125 197.136719 271.511719 197.039062 272.066406 186.550781 C 272.070312 186.527344 282.164062 186.492188 281.820312 197.160156 "/><g clip-rule="nonzero" clip-path="url(#fa292a5203)"><path style=" stroke:none;fill-rule:nonzero;fill:#ffffff;fill-opacity:1;" d="M 334.460938 169 C 334.457031 169.039062 337.570312 177.761719 325.761719 176.609375 C 325.757812 176.648438 322.46875 167.808594 334.460938 169 "/></g><path style=" stroke:none;fill-rule:nonzero;fill:#ffffff;fill-opacity:1;" d="M 332.011719 153.101562 C 332 153.160156 333.566406 164.753906 317.484375 160.46875 C 317.46875 160.53125 315.65625 148.515625 332.011719 153.101562 "/><path style=" stroke:none;fill-rule:nonzero;fill:#ffffff;fill-opacity:1;" d="M 291.921875 196.484375 C 291.925781 196.46875 284.046875 196.25 284.476562 188.308594 C 284.480469 188.289062 292.183594 188.390625 291.921875 196.484375 "/><path style=" stroke:none;fill-rule:nonzero;fill:#ffffff;fill-opacity:1;" d="M 304.734375 193.929688 C 304.734375 193.910156 296.730469 195.355469 294.824219 187.382812 C 294.828125 187.363281 302.613281 185.820312 304.734375 193.929688 "/><path style=" stroke:none;fill-rule:nonzero;fill:#ffffff;fill-opacity:1;" d="M 314.636719 192.476562 C 314.640625 192.453125 306.664062 193.738281 304.761719 185.800781 C 304.765625 185.78125 312.519531 184.40625 314.636719 192.476562 "/><path style=" stroke:none;fill-rule:nonzero;fill:#ffffff;fill-opacity:1;" d="M 325.082031 187.679688 C 325.085938 187.65625 318.359375 191.320312 313.179688 184.570312 C 313.179688 184.550781 319.660156 180.78125 325.082031 187.679688 "/><path style=" stroke:none;fill-rule:nonzero;fill:#ffffff;fill-opacity:1;" d="M 281.003906 221.941406 C 281.007812 221.925781 272.714844 223.199219 271.628906 215.144531 C 271.628906 215.125 279.710938 213.753906 281.003906 221.941406 "/><path style=" stroke:none;fill-rule:nonzero;fill:#ffffff;fill-opacity:1;" d="M 272.574219 235.398438 C 272.578125 235.382812 264.023438 235.734375 264.277344 227.699219 C 264.277344 227.6875 272.644531 227.222656 272.574219 235.398438 "/><path style=" stroke:none;fill-rule:nonzero;fill:#ffffff;fill-opacity:1;" d="M 259.980469 232.898438 C 259.980469 232.894531 251.578125 230.542969 255.164062 223.3125 C 255.164062 223.308594 263.453125 225.492188 259.980469 232.898438 "/><path style=" stroke:none;fill-rule:nonzero;fill:#ffffff;fill-opacity:1;" d="M 249.148438 228.410156 C 249.152344 228.417969 241.972656 223.707031 248.304688 218.164062 C 248.304688 218.171875 255.457031 222.652344 249.148438 228.410156 "/><path style=" stroke:none;fill-rule:nonzero;fill:#ffffff;fill-opacity:1;" d="M 238.152344 223.488281 C 238.152344 223.5 234.238281 216.421875 243.0625 214.457031 C 243.0625 214.472656 247.082031 221.273438 238.152344 223.488281 "/><path style=" stroke:none;fill-rule:nonzero;fill:#ffffff;fill-opacity:1;" d="M 271.285156 220.960938 C 271.285156 220.9375 262.980469 222.324219 261.886719 214.226562 C 261.886719 214.210938 269.984375 212.726562 271.285156 220.960938 "/><path style=" stroke:none;fill-rule:nonzero;fill:#ffffff;fill-opacity:1;" d="M 291.261719 220.660156 C 291.265625 220.640625 282.992188 221.785156 281.90625 213.777344 C 281.910156 213.757812 289.976562 212.519531 291.261719 220.660156 "/><path style=" stroke:none;fill-rule:nonzero;fill:#ffffff;fill-opacity:1;" d="M 302.480469 215.988281 C 302.480469 215.96875 295.1875 219.5625 290.632812 212.695312 C 290.632812 212.675781 297.667969 208.996094 302.480469 215.988281 "/><path style=" stroke:none;fill-rule:nonzero;fill:#ffffff;fill-opacity:1;" d="M 331.957031 182.820312 C 331.957031 182.804688 326.972656 186.082031 322.234375 180.988281 C 322.234375 180.976562 327.015625 177.609375 331.957031 182.820312 "/><path style=" stroke:none;fill-rule:nonzero;fill:#ffffff;fill-opacity:1;" d="M 44.023438 175.804688 C 44.027344 175.777344 52.117188 184.363281 65.953125 174.074219 C 65.960938 174.054688 58.25 164.976562 44.023438 175.804688 "/><path style=" stroke:none;fill-rule:nonzero;fill:#ffffff;fill-opacity:1;" d="M 67.722656 203.984375 C 67.726562 203.96875 74.429688 212.105469 86.464844 204.113281 C 86.464844 204.105469 80.128906 195.691406 67.722656 203.984375 "/><path style=" stroke:none;fill-rule:nonzero;fill:#ffffff;fill-opacity:1;" d="M 82.179688 219.40625 C 82.179688 219.386719 89.859375 226.566406 100.402344 218.042969 C 100.40625 218.027344 93.101562 210.632812 82.179688 219.40625 "/><path style=" stroke:none;fill-rule:nonzero;fill:#ffffff;fill-opacity:1;" d="M 76.691406 190.867188 C 76.691406 190.839844 86.476562 191.324219 89.019531 181.375 C 89.015625 181.347656 79.496094 180.695312 76.691406 190.867188 "/><path style=" stroke:none;fill-rule:nonzero;fill:#ffffff;fill-opacity:1;" d="M 104.414062 191.515625 C 104.414062 191.503906 114.09375 188.015625 111.03125 178.695312 C 111.027344 178.683594 101.5 181.953125 104.414062 191.515625 "/><path style=" stroke:none;fill-rule:nonzero;fill:#ffffff;fill-opacity:1;" d="M 90.414062 193.609375 C 90.410156 193.585938 101.667969 191.949219 99.910156 181.292969 C 99.90625 181.269531 88.867188 182.738281 90.414062 193.609375 "/><path style=" stroke:none;fill-rule:nonzero;fill:#ffffff;fill-opacity:1;" d="M 66.0625 185.734375 C 66.0625 185.710938 73.503906 188.976562 79.449219 180.835938 C 79.449219 180.816406 72.289062 177.386719 66.0625 185.734375 "/><path style=" stroke:none;fill-rule:nonzero;fill:#ffffff;fill-opacity:1;" d="M 59.269531 181.632812 C 59.269531 181.621094 64.773438 184.707031 70.191406 178.464844 C 70.191406 178.457031 64.917969 175.242188 59.269531 181.632812 "/><path style=" stroke:none;fill-rule:nonzero;fill:#ffffff;fill-opacity:1;" d="M 94.960938 225.234375 C 94.960938 225.222656 100.511719 228.882812 105.976562 222.953125 C 105.976562 222.945312 100.667969 219.1875 94.960938 225.234375 "/><path style=" stroke:none;fill-rule:nonzero;fill:#ffffff;fill-opacity:1;" d="M 130.296875 227.949219 C 130.289062 227.945312 139.414062 223.574219 134.644531 214.671875 C 134.640625 214.667969 125.625 218.785156 130.296875 227.949219 "/><path style=" stroke:none;fill-rule:nonzero;fill:#ffffff;fill-opacity:1;" d="M 144.507812 223.441406 C 144.507812 223.445312 153.253906 216.628906 144.230469 209.253906 C 144.230469 209.261719 135.484375 215.769531 144.507812 223.441406 "/><path style=" stroke:none;fill-rule:nonzero;fill:#ffffff;fill-opacity:1;" d="M 116.933594 229.085938 C 116.933594 229.078125 126.082031 228.027344 125.664062 218.921875 C 125.664062 218.910156 116.710938 219.769531 116.933594 229.085938 "/><path style=" stroke:none;fill-rule:nonzero;fill:#ffffff;fill-opacity:1;" d="M 107.699219 229.1875 C 107.695312 229.179688 115.03125 228.921875 115.539062 221.585938 C 115.539062 221.578125 108.378906 221.6875 107.699219 229.1875 "/></g></svg>